<?xml version="1.0" encoding="UTF-8" standalone="no"?>
<!-- Created with Inkscape (http://www.inkscape.org/) -->

<svg
   xmlns:dc="http://purl.org/dc/elements/1.1/"
   xmlns:cc="http://creativecommons.org/ns#"
   xmlns:rdf="http://www.w3.org/1999/02/22-rdf-syntax-ns#"
   xmlns:svg="http://www.w3.org/2000/svg"
   xmlns="http://www.w3.org/2000/svg"
   xmlns:sodipodi="http://sodipodi.sourceforge.net/DTD/sodipodi-0.dtd"
   xmlns:inkscape="http://www.inkscape.org/namespaces/inkscape"
   width="210mm"
   height="297mm"
   viewBox="0 0 210 297"
   version="1.1"
   id="svg3980"
   inkscape:version="0.92.3 (2405546, 2018-03-11)"
   sodipodi:docname="playguin2.svg">
  <defs
     id="defs3974" />
  <sodipodi:namedview
     id="base"
     pagecolor="#ffffff"
     bordercolor="#666666"
     borderopacity="1.0"
     inkscape:pageopacity="0.0"
     inkscape:pageshadow="2"
     inkscape:zoom="1.4"
     inkscape:cx="243.63934"
     inkscape:cy="853.28466"
     inkscape:document-units="mm"
     inkscape:current-layer="layer1"
     showgrid="false"
     inkscape:window-width="1920"
     inkscape:window-height="1043"
     inkscape:window-x="0"
     inkscape:window-y="0"
     inkscape:window-maximized="1" />
  <metadata
     id="metadata3977">
    <rdf:RDF>
      <cc:Work
         rdf:about="">
        <dc:format>image/svg+xml</dc:format>
        <dc:type
           rdf:resource="http://purl.org/dc/dcmitype/StillImage" />
        <dc:title></dc:title>
      </cc:Work>
    </rdf:RDF>
  </metadata>
  <g
     inkscape:label="Camada 1"
     inkscape:groupmode="layer"
     id="layer1">
    <g
       style="clip-rule:evenodd;fill-rule:evenodd;stroke-linejoin:round;stroke-miterlimit:2"
       id="g22"
       transform="matrix(0.16785403,0,0,0.23689476,-16.579491,2.4095973)">
      <g
         id="g20">
        <g
           id="g18">
          <g
             id="g16">
            <g
               id="g14">
              <text
                 x="107.011"
                 y="426.05801"
                 style="font-size:30px;font-family:ArialMT, Arial, sans-serif"
                 id="text4">E <tspan
   x="154.021 175.686 202.685 221.00999 248.00999"
   y="426.05801 426.05801 426.05801 426.05801 426.05801"
   id="tspan2">N T E</tspan>
</text>
              <text
                 x="295.01901"
                 y="426.05801"
                 style="font-size:30px;font-family:ArialMT, Arial, sans-serif"
                 id="text6">R</text>
              <text
                 x="343.14401"
                 y="426.05801"
                 style="font-size:30px;font-family:ArialMT, Arial, sans-serif"
                 id="text8">T</text>
              <text
                 x="386.245"
                 y="426.05801"
                 style="font-size:30px;font-family:ArialMT, Arial, sans-serif"
                 id="text12">A <tspan
   x="433.255 441.58899 468.58899 490.254 517.25403 542.24402 569.24298 589.25299 616.25299 637.91803 664.91699"
   y="426.05801 426.05801 426.05801 426.05801 426.05801 426.05801 426.05801 426.05801 426.05801 426.05801 426.05801"
   id="tspan10">I N M E N T</tspan>
</text>
            </g>
          </g>
        </g>
      </g>
    </g>
    <g
       style="clip-rule:evenodd;fill-rule:evenodd;stroke-linejoin:round;stroke-miterlimit:2"
       transform="matrix(0.13062718,0,0,0.11905911,57.095893,97.602283)"
       id="g30">
      <path
         d="m 0,-129.593 0.875,0.875 c -10.799,1.556 -20.576,5.498 -28.156,12.656 -0.06,0.056 -0.129,0.1 -0.188,0.157 -0.13,0.116 -0.25,0.253 -0.375,0.375 l -0.093,0.062 -0.063,0.094 c -1.559,1.647 -2.935,3.366 -4.344,5.062 -0.326,-1.791 -0.713,-3.656 -1.562,-5.781 l -0.063,-0.094 c -0.548,-1.361 -3.05,-7.324 -9.75,-9.781 -2.552,-0.937 -5.298,-1.164 -7.969,-0.656 l -6.25,1.187 -4.062,0.781 v 0.719 c -2.174,0.956 -4.176,2.172 -5.75,3.938 -2.023,2.267 -2.994,4.517 -3.656,6.406 -1.28,-3.625 -3.861,-6.678 -7.375,-8.438 -0.012,-0.006 -0.021,0.006 -0.032,0 -1.517,-0.758 -2.395,-1.185 -3.625,-1.437 -0.334,-0.069 -0.539,-0.046 -0.843,-0.063 -0.696,-0.138 -1.384,-0.256 -2.157,-0.375 -1.555,-0.239 -3.489,-0.506 -5.937,-0.812 -4.772,-0.597 -11.659,-1.359 -20.406,-2.312 -0.331,-0.037 -0.422,-0.05 -0.563,-0.063 -0.031,-0.004 -0.062,0.004 -0.094,0 -0.294,-0.036 -0.577,-0.075 -0.875,-0.094 h -0.031 c -0.755,-0.043 -1.497,-0.01 -2.25,0.063 -0.01,10e-4 -0.02,-0.001 -0.031,0 -0.136,0.011 -0.271,0.046 -0.406,0.062 -0.041,0.005 -0.084,-0.005 -0.125,0 h -0.313 l -0.25,0.063 -0.187,0.031 c -0.442,0.08 -0.88,0.161 -1.313,0.281 -0.032,0.008 -0.061,0.023 -0.094,0.032 -0.454,0.122 -0.872,0.334 -1.312,0.5 -0.05,0.017 -0.107,0.011 -0.156,0.03 -3.925,0.838 -7.85,1.977 -11.625,4.187 -2.051,1.201 -3.841,2.946 -5.469,4.938 -8.326,-4.539 -18.108,-6.492 -28.75,-6.688 -0.166,-0.018 -0.333,-0.017 -0.5,-0.03 -0.364,-0.029 -0.729,-0.061 -1.094,-0.063 h -0.093 c -0.458,-0.007 -0.91,0.026 -1.375,0.063 v -0.031 c -0.151,0.01 -0.277,0.049 -0.407,0.062 -0.039,0.004 -0.088,-0.004 -0.125,0 l -13.531,1.156 h -0.187 c -0.332,0.04 -0.672,0.094 -1,0.157 -0.023,0.004 -0.041,-0.004 -0.063,0 -0.041,0.008 -0.083,0.022 -0.125,0.031 -7.446,1.245 -13.335,2.508 -18.312,4.219 -2.386,0.82 -5.025,1.816 -7.75,3.719 l -0.032,0.03 c -2.906,2.038 -7.673,6.71 -7.687,14.125 v 0.031 c -0.006,3.098 0.94,6.119 2.719,8.656 1.855,2.628 3.73,5.03 5.625,7.25 -4.297,1.684 -8.334,3.972 -11.782,7.282 h -0.031 c -0.869,0.845 -1.608,1.814 -2.25,2.843 -0.008,0.013 -0.023,0.019 -0.031,0.032 -5.423,8.652 -7.938,18.8 -7.938,29.375 v 0.125 c -1.376,-0.204 -2.984,-0.44 -4.656,-0.657 -0.125,-1.361 -0.25,-2.4 -0.344,-4.437 l 1.719,-31.844 v -0.156 c 0.007,-0.234 0.004,-0.453 0,-0.688 v -3.875 c 0,-11.021 -3.125,-21.812 -10.687,-29.718 h -0.032 v -0.032 c -0.5,-0.512 -1.055,-0.969 -1.625,-1.406 -0.01,-0.009 -0.019,-0.021 -0.031,-0.03 -6.472,-5.032 -13.87,-8.416 -21.812,-9.281 -0.01,-0.003 -0.021,0.001 -0.031,0 -0.244,-0.027 -0.474,-0.104 -0.719,-0.125 v 0.062 c -1.501,-0.288 -3.041,-0.459 -4.562,-0.281 -0.253,0.029 -0.502,0.082 -0.75,0.125 -0.063,0.01 -0.126,0.019 -0.188,0.03 -0.635,0.101 -1.258,0.258 -1.875,0.438 v -0.031 c -2.133,0.502 -4.089,0.981 -5.687,1.438 -0.671,0.191 -1.465,0.425 -2.313,0.718 -0.349,0.049 -1.217,0.225 -2,0.563 -1.566,0.674 -2.8,1.706 -4.531,3.438 -0.044,0.042 -0.051,0.111 -0.094,0.156 -5.118,-4.778 -11.088,-6.444 -16.687,-7.5 -5.686,-1.074 -12.079,-1.47 -19.438,-1.5 -0.247,-0.014 -0.503,-0.031 -0.75,-0.032 h -0.343 l -32.125,0.594 h -0.032 c -0.711,0.012 -1.421,0.074 -2.125,0.188 h -0.031 l -3.594,0.593 -4.812,0.813 0.125,0.906 c -1.254,0.591 -2.43,1.303 -3.469,2.25 -1.976,1.801 -3.103,3.755 -3.656,4.813 -1.26,2.406 -1.816,4.51 -2.219,6.218 -0.869,3.684 -1.367,7.77 -1.844,12.938 -0.958,10.379 -1.599,25.101 -2,44.624 -0.003,0.187 -0.003,0.377 0,0.563 0.201,11.796 0.483,20.828 0.969,27.468 0.243,3.329 0.547,6.041 0.969,8.5 0.193,1.128 0.441,2.515 0.969,4.125 -0.035,-0.107 0.211,1.299 1.062,2.969 0.852,1.671 2.274,3.394 4.438,5.094 2.475,1.943 5.48,3.053 8.625,3.187 l 13.968,0.594 c 7.255,0.315 13.675,-4.603 15.281,-11.687 0.514,-2.281 0.513,-3.439 0.625,-4.782 0.135,-1.629 0.285,-3.618 0.437,-6.125 0.073,-1.206 0.165,-3.157 0.25,-4.906 0.544,0.024 1.081,0.125 1.625,0.125 h 4.157 c 7.067,0 14.137,-1.377 21.062,-3.844 0.019,-0.007 0.043,0.008 0.063,0 v -0.031 c 0.23,-0.08 0.461,-0.158 0.687,-0.25 h 0.063 c 4.367,-1.833 8.373,-4.133 12.031,-6.719 1.51,8.267 4.308,15.798 9.125,22.157 8.116,10.717 21.222,16.046 34.906,16.062 h 0.063 c 0.441,0.005 0.89,-0.025 1.343,-0.062 h 0.063 c 9.479,-0.898 16.587,-1.619 21.5,-2.188 2.461,-0.284 4.376,-0.534 5.937,-0.781 0.736,-0.115 1.542,-0.23 2.532,-0.469 0.171,-0.041 1.261,-0.304 2.5,-0.812 0.276,-0.114 1.823,-0.77 3.343,-1.907 0.186,-0.138 0.513,-0.489 0.75,-0.687 6.422,5.625 13.838,9.75 22.688,9.75 7.783,0 15.117,-1.269 21.844,-3.813 2.134,1.668 5.122,3.219 9.093,3.219 h 10.438 c 5.738,0 11.178,-0.826 16.312,-2.687 0.031,-0.011 0.063,-0.02 0.093,-0.032 0.027,-0.007 0.188,-0.045 0.25,-0.062 0.153,-0.04 0.238,-0.057 0.594,-0.188 h 0.062 l 0.063,-0.03 c -1.127,0.446 -0.922,0.46 0.562,-0.156 l 4.313,-1.781 -0.25,-0.782 c 1.403,-1.102 2.566,-2.294 3.406,-3.593 1.559,-2.414 2.177,-4.673 2.469,-5.844 0.709,-2.836 0.947,-5.438 1.094,-8.25 v -0.063 c 0.012,-0.334 0.01,-0.667 0,-1 v -0.093 l -0.282,-13.219 v -0.281 l 0.438,-7.344 c 1.512,1.021 2.975,2.13 4.625,2.937 0.636,0.312 1.295,0.563 1.969,0.782 4.873,1.572 8.18,2.7 11.25,3.75 l 2.25,20.281 0.5,4.437 h 0.781 c 0.815,1.909 1.899,3.506 3.125,4.75 1.842,1.867 3.815,2.92 4.781,3.375 2.203,1.038 4.082,1.454 5.406,1.719 2.983,0.597 6.029,0.853 9.782,1.094 v -0.031 c 0.297,0.022 0.608,0.058 0.906,0.062 h 0.062 c 3.914,0 7.493,-1.327 10.469,-3.906 2.597,-2.25 3.937,-4.896 4.625,-6.688 1.327,-3.45 1.375,-6.383 1.375,-8.281 v -0.031 c -0.003,-0.522 -0.036,-1.043 -0.094,-1.563 v -0.031 l -1.186,-10.845 c 4.691,-1.604 8.952,-3.407 12.718,-5.875 4.484,11.775 13.001,21.764 24.688,28.407 0.008,0.003 0.023,-0.004 0.03,0 0.581,0.332 1.193,0.624 1.813,0.875 13.125,5.295 27.125,7.937 41.625,7.937 h 0.281 c 6.223,0 12.221,-0.648 17.969,-3.312 0.186,-0.086 0.377,-0.128 0.562,-0.219 v -0.031 c 0.499,-0.218 1.064,-0.456 1.219,-0.532 L 39.374,-7 39.499,-7.063 c -0.847,0.474 -0.754,0.449 0.25,-0.125 l 2.531,-1.437 v -0.188 c 2.397,-1.783 4.055,-3.877 5.125,-5.875 0.434,-0.808 0.681,-1.561 1,-2.343 8.941,8.915 21.048,14.187 34.5,14.187 9.304,0 17.985,-1.377 25.782,-4.875 h 0.031 c 0.568,-0.255 1.125,-0.551 1.656,-0.875 0.013,-0.007 0.02,-0.023 0.031,-0.031 2.317,-1.416 4.375,-3.107 6.313,-4.906 1.725,5.003 6.05,8.854 11.531,9.843 l 3.281,0.594 c 1.259,0.226 2.538,0.287 3.813,0.188 v 0.031 l 17.656,-1.375 2.656,0.187 h 0.032 c 3.239,0.242 6.404,-0.585 9.093,-2.281 0.906,0.601 1.939,1.102 3.094,1.531 v 0.938 l 4.875,0.125 c 0.255,0.007 0.314,0.004 0.156,0 h 0.032 c -0.514,-0.008 0.203,-0.006 0.093,0 -0.185,0.011 -0.822,0.031 0.157,0.031 h 0.843 l 27.844,0.875 c 4.06,0.118 7.933,-1.431 10.844,-4.25 l 0.031,0.031 0.188,-0.187 0.125,-0.094 0.093,-0.094 0.094,-0.093 c 0.111,-0.112 0.174,-0.26 0.281,-0.375 0.607,0.394 1.139,0.881 1.813,1.187 4.217,1.917 8.048,2.094 11.125,2.094 h 2.312 c 0.021,0.001 0.042,0 0.063,0 0.442,0.005 0.89,-0.026 1.344,-0.063 h 0.093 l 11.532,-1.125 h 0.468 l 3.188,0.25 c 0.405,0.033 0.812,0.033 1.219,0.032 5.464,0 9.281,-2.689 11.437,-5.032 1.729,-1.877 2.635,-3.793 3.031,-4.687 0.974,-2.197 1.387,-4.059 1.688,-5.531 0.665,-3.251 1.072,-6.915 1.469,-11.563 v -0.031 c 0.027,-0.348 0.059,-0.713 0.062,-1.063 v -0.03 c 0.272,-26.053 0.535,-45.607 0.781,-58.562 0.123,-6.489 0.233,-11.364 0.344,-14.438 0.055,-1.521 0.122,-2.642 0.156,-3.125 v -0.031 h -0.031 c 0.022,-0.136 0.014,-0.271 0.031,-0.407 0.585,-4.579 -0.9,-9.164 -4.187,-12.468 l -0.313,-0.313 c -2.758,-2.741 -6.456,-4.311 -10.343,-4.375 h -0.031 l -19.906,-0.312 h -0.063 c -0.067,-0.001 -0.121,-0.001 -0.187,0 h -0.313 c -3.986,0.008 -7.777,1.583 -10.593,4.406 l -0.282,0.281 c -1.607,1.603 -2.76,3.533 -3.5,5.625 -1.433,-2.073 -3.007,-4.07 -5.062,-5.875 -3.359,-2.95 -8.229,-5.606 -14.125,-5.625 h -0.063 c -0.11,-10e-4 -0.234,-10e-4 -0.343,0 h -0.094 l -8.906,0.281 h -0.157 l -6.468,-0.468 -0.344,-0.032 h -0.063 c -0.208,-0.017 -0.416,-0.023 -0.625,-0.031 -0.104,-0.004 -0.208,-0.029 -0.312,-0.031 v 0.031 c -0.376,-0.023 -0.75,-0.068 -1.125,-0.062 -0.021,0 -0.042,-0.001 -0.063,0 -0.334,0.004 -0.69,0.035 -1.031,0.062 h -0.187 c -0.253,0.03 -0.501,0.083 -0.75,0.125 -0.063,0.01 -0.126,0.02 -0.188,0.031 -0.635,0.1 -1.259,0.257 -1.875,0.438 v -0.031 l -4.125,0.969 -4.937,1.156 0.25,0.968 c -2.19,1.328 -3.776,2.919 -4.844,4.438 -4.313,-3.022 -9.261,-5.081 -14.625,-5.562 -0.107,-0.011 -0.205,-0.055 -0.313,-0.063 v 0.031 c -0.714,-0.099 -1.434,-0.161 -2.156,-0.156 h -0.312 c -0.344,0.003 -0.712,0.035 -1.063,0.063 v -0.032 c -0.463,0.034 -0.92,0.111 -1.375,0.188 -0.041,0.007 -0.085,-0.007 -0.125,0 v 0.031 c -0.654,0.106 -1.302,0.245 -1.937,0.438 h -0.063 l -0.062,0.031 c -1.315,0.427 -1.464,0.554 -0.563,0.25 -4.382,1.482 -8.689,3.537 -12.437,6.594 -0.528,-0.345 -1.074,-0.703 -1.406,-0.875 -2.05,-1.072 -3.871,-1.463 -4.594,-1.625 -2.089,-0.468 -3.932,-0.666 -5.906,-0.813 -4.07,-0.304 -9.247,-0.375 -16.063,-0.375 H 83.813 c -0.923,-0.007 -1.842,0.087 -2.75,0.25 H 81 c -4.357,0.83 -7.33,3.205 -9.219,5.469 -0.291,-0.295 -0.525,-0.634 -0.843,-0.906 -2.474,-2.121 -4.894,-2.961 -5.157,-3.063 l -0.031,-0.031 c -1.097,-0.44 -2.148,-0.77 -3.219,-1.094 -1.677,-0.509 -3.714,-1.009 -5.843,-1.531 -0.113,-0.041 -0.231,-0.057 -0.344,-0.094 -0.01,-0.003 -0.022,0.003 -0.031,0 -0.036,-0.009 -0.059,-0.023 -0.094,-0.031 v 0.031 c -0.939,-0.304 -1.895,-0.543 -2.875,-0.656 v -0.032 c -0.041,-0.004 -0.084,0.005 -0.125,0 -0.219,-0.027 -0.438,-0.044 -0.656,-0.062 -0.052,-0.005 -0.104,-0.026 -0.157,-0.031 -0.134,-0.013 -0.272,-0.023 -0.406,-0.032 h -0.156 c -0.288,-0.009 -0.556,-0.007 -0.844,0 -0.032,0.001 -0.062,0 -0.094,0 -0.471,0.009 -0.94,0.042 -1.406,0.094 h -0.031 c -0.289,0.034 -0.588,0.073 -0.875,0.125 -0.056,0.008 -0.131,0.019 -0.219,0.031 -0.031,0.006 -0.062,0.025 -0.094,0.032 l -0.218,0.031 -0.219,0.062 c -0.171,0.043 -0.359,0.075 -0.531,0.125 v 0.032 c -0.336,0.088 -0.671,0.169 -1,0.281 -1.958,-1.816 -4.348,-3.147 -7.032,-3.719 v -0.031 c -6.27,-1.332 -11.941,-2.125 -17.375,-2.125 z"
         style="fill-rule:nonzero"
         id="path28"
         inkscape:connector-curvature="0" />
    </g>
    <g
       style="clip-rule:evenodd;fill-rule:evenodd;stroke-linejoin:round;stroke-miterlimit:2"
       transform="matrix(0.13062718,0,0,0.11905911,58.671648,97.006993)"
       id="g34">
      <path
         d="m 0,-119.593 c -0.335,0.004 -0.668,0.024 -1,0.062 h -0.094 c -13.983,0.191 -26.237,3.91 -34.969,12.251 -0.127,0.111 -0.252,0.225 -0.375,0.343 -4.548,4.812 -8.414,9.842 -11.687,14.999 -0.253,-4.729 -0.532,-8.827 -1.094,-12.03 -0.317,-1.807 -0.659,-3.414 -1.406,-5.281 -0.748,-1.868 -1.6,-5.097 -6.875,-7.031 -1.688,-0.621 -3.546,-0.774 -5.313,-0.438 l -6.25,1.187 v 0.063 c -2.766,0.532 -5.5,2.064 -7.031,3.781 -1.879,2.107 -2.593,4.084 -3.125,5.875 -1.064,3.581 -1.25,6.958 -1.25,11.125 -0.001,0.073 -0.001,0.146 0,0.219 L -80.156,-81 v 4.469 c 0,5.35 -1.082,7.71 -1.094,7.968 -0.932,0.259 -2.481,0.58 -4.625,0.938 -0.299,-0.023 -0.204,0.156 -0.531,-0.438 -0.397,-0.717 -1.138,-3.014 -1.157,-6.875 v -0.125 l 0.313,-26.374 c 0.008,-0.511 -0.023,-1.024 -0.094,-1.531 l -0.312,-2.062 c -0.457,-3.188 -2.556,-6.095 -5.438,-7.532 -2.782,-1.39 -2.564,-0.938 -3.187,-1.062 -0.624,-0.125 -1.239,-0.232 -1.969,-0.344 -1.461,-0.226 -3.381,-0.478 -5.813,-0.781 -4.712,-0.59 -11.574,-1.361 -20.312,-2.313 -0.282,-0.031 -0.37,-0.032 -0.656,-0.062 -0.218,-0.029 -0.438,-0.049 -0.657,-0.063 -0.51,-0.029 -1.022,-0.018 -1.531,0.032 -0.251,0.021 -0.502,0.052 -0.75,0.092 h -0.093 c -0.317,0.059 -0.629,0.131 -0.938,0.219 -0.568,0.149 -1.123,0.349 -1.656,0.594 -3.75,0.794 -7.131,1.781 -10.281,3.625 -2.43,1.423 -4.944,4.035 -6.5,7.219 -8.101,-5.805 -18.676,-8.149 -30.813,-8.313 -0.374,-0.042 -0.749,-0.062 -1.125,-0.062 -0.344,-0.007 -0.688,0.003 -1.031,0.031 -0.115,0.009 -0.23,0.019 -0.344,0.031 l -13.656,1.156 c -0.262,0.032 -0.523,0.074 -0.781,0.125 -7.427,1.239 -13.118,2.461 -17.688,4.032 -2.285,0.786 -4.306,1.562 -6.5,3.093 -2.195,1.533 -5.594,4.756 -5.594,10.094 -0.008,2.052 0.635,4.102 1.813,5.781 3.465,4.909 6.996,8.955 10.594,12.563 -6.742,1.426 -12.701,3.95 -17.375,8.437 -0.586,0.571 -1.102,1.212 -1.532,1.907 -4.873,7.757 -7.187,16.948 -7.187,26.75 v 1.5 c 0,1.575 0.183,3.134 0.375,4.687 -1.348,-0.326 -2.727,-0.609 -4.531,-0.906 -2.37,-0.39 -6.565,-0.905 -10.157,-1.375 -0.265,-2.286 -0.538,-4.732 -0.718,-8.844 l 1.75,-32.156 c 0.004,-0.188 0.004,-0.375 0,-0.563 v -3.875 c 0,-10.08 -2.846,-19.488 -9.313,-26.25 -0.341,-0.348 -0.706,-0.673 -1.094,-0.968 -6.087,-4.741 -12.857,-7.782 -19.968,-8.407 -1.152,-0.281 -2.354,-0.355 -3.532,-0.218 -0.209,0.025 -0.418,0.056 -0.625,0.093 -0.551,0.08 -1.094,0.205 -1.625,0.375 -2.11,0.497 -4.039,0.967 -5.468,1.375 -0.846,0.242 -1.583,0.442 -2.407,0.75 -0.824,0.31 -1.235,-0.357 -4.281,2.688 -1.681,1.679 -2.732,3.974 -2.906,6.344 -0.869,-1.434 -1.621,-2.881 -2.594,-4.313 -0.391,-0.576 -0.842,-1.11 -1.344,-1.593 -4.209,-4.031 -8.982,-5.382 -14.406,-6.406 -5.222,-0.986 -11.342,-1.377 -18.531,-1.406 -0.26,-0.022 -0.521,-0.032 -0.781,-0.032 H -341 l -32.156,0.594 c -0.482,0.007 -0.963,0.049 -1.438,0.125 l -3.593,0.594 0.031,0.219 c -2.347,0.419 -4.454,1.432 -5.625,2.5 -1.45,1.32 -2.088,2.468 -2.594,3.437 -1.014,1.937 -1.393,3.411 -1.781,5.063 -0.78,3.301 -1.282,7.177 -1.75,12.25 -0.937,10.145 -1.57,24.782 -1.969,44.249 -0.003,0.125 -0.003,0.25 0,0.375 0.2,11.757 0.496,20.731 0.969,27.187 0.236,3.229 0.521,5.793 0.906,8.032 0.191,1.12 0.373,2.159 0.781,3.406 0.407,1.248 0.315,2.915 3.844,5.687 1.634,1.283 3.675,2.037 5.75,2.125 l 13.969,0.594 c 4.634,0.201 9.162,-3.258 10.187,-7.781 0.455,-2.017 0.403,-2.546 0.532,-4.094 0.127,-1.547 0.254,-3.532 0.406,-6.031 0.142,-2.354 0.331,-6.684 0.5,-9.938 2.241,0.252 4.427,0.469 6.375,0.469 h 4.156 c 6.441,0 12.958,-1.248 19.438,-3.562 0.167,-0.058 0.334,-0.121 0.5,-0.188 6.967,-2.925 12.98,-6.934 17.781,-11.719 0.827,11.371 3.533,21.12 9.312,28.75 7.047,9.305 18.548,14.094 30.969,14.094 0.313,0.004 0.625,-0.006 0.938,-0.031 9.459,-0.896 16.555,-1.625 21.406,-2.188 2.425,-0.28 4.269,-0.52 5.719,-0.75 0.723,-0.114 1.314,-0.21 2.125,-0.406 0.404,-0.098 0.818,-0.167 1.781,-0.562 0.48,-0.198 1.077,-0.405 2.25,-1.282 0.775,-0.579 2.248,-1.841 3.187,-4 6.834,7.102 14.294,12.063 23.25,12.063 8.445,0 16.167,-1.479 22.969,-4.594 1.155,1.503 3.613,4 7.969,4 h 10.437 c 5.395,0 10.317,-0.759 14.907,-2.469 0.211,-0.062 0.419,-0.112 0.625,-0.187 0.158,-0.063 0.341,-0.059 0.5,-0.125 l -0.032,-0.094 c 2.511,-1.061 4.396,-2.881 5.219,-4.156 1.202,-1.862 1.513,-3.146 1.813,-4.344 0.598,-2.395 0.795,-4.571 0.937,-7.281 0.009,-0.239 0.009,-0.479 0,-0.719 l -0.281,-13.562 v -0.125 l 1,-17.782 c 3.012,3.703 6.872,6.734 11.25,8.875 0.424,0.208 0.863,0.386 1.312,0.532 6.112,1.971 10.861,3.573 14.156,4.718 0.074,0.027 0.115,0.037 0.188,0.063 l 2.594,23.437 h 0.062 c 0.332,2.704 1.741,5.038 2.938,6.25 1.36,1.381 2.457,1.926 3.343,2.344 1.774,0.837 2.956,1.085 4.25,1.344 2.589,0.518 5.427,0.762 9.125,1 0.218,0.017 0.437,0.028 0.657,0.031 2.415,0 5.339,-1.085 7.187,-2.687 1.848,-1.602 2.725,-3.323 3.25,-4.688 1.05,-2.729 1.031,-4.568 1.031,-6.5 -10e-4,-0.354 -0.023,-0.709 -0.062,-1.062 l -1.531,-14.157 c 0.029,-0.238 0.05,-0.478 0.062,-0.718 9.031,-2.872 15.476,-5.401 20.562,-10.969 3.027,13.658 11.624,25.26 24.594,32.625 0.392,0.225 0.799,0.424 1.218,0.594 12.516,5.05 25.853,7.562 39.75,7.562 h 0.282 c 6.088,0 11.391,-0.612 16.343,-3.031 0.442,-0.153 0.815,-0.364 1.219,-0.563 0.071,-0.039 0.148,-0.052 0.219,-0.093 v -0.032 c 2.826,-1.461 4.81,-3.803 5.719,-5.5 1.374,-2.563 1.941,-4.83 2.468,-7.437 0.2,-0.988 0.304,-2.285 0.469,-3.375 8.102,12.501 21.422,20.031 36.969,20.031 8.808,0 16.775,-1.309 23.75,-4.437 0.387,-0.173 0.763,-0.373 1.125,-0.594 5.702,-3.479 10.065,-8.36 13.437,-14.313 l -0.312,8.407 c -0.164,4.753 3.538,9.342 8.219,10.187 L 120.343,-3 c 0.845,0.151 1.708,0.194 2.562,0.125 l 18,-1.406 3.063,0.218 c 2.869,0.221 5.811,-0.87 7.844,-2.906 l 0.906,-0.875 c 0.032,-0.041 0.063,-0.083 0.094,-0.125 0.082,0.11 0.065,0.135 0.156,0.25 1.131,1.423 3.916,3.806 7.844,3.938 v 0.031 c 0.043,10e-4 0.082,0 0.125,0 0.067,10e-4 0.12,0.031 0.187,0.031 V -3.75 l 28.844,0.906 c 2.72,0.079 5.455,-1.01 7.375,-2.937 l 0.312,-0.282 c 1.3,-1.299 2.231,-2.963 2.657,-4.75 1.458,2.086 3.327,3.757 5.031,4.532 3.378,1.536 6.122,1.656 9.062,1.656 h 2.375 c 0.314,0.005 0.626,-0.006 0.938,-0.031 l 11.844,-1.157 h 1.062 l 3.188,0.25 c 0.27,0.022 0.542,0.033 0.812,0.032 3.623,0 6.458,-2.002 7.75,-3.407 1.292,-1.403 1.767,-2.463 2.156,-3.343 0.782,-1.761 1.044,-3.035 1.344,-4.5 0.6,-2.931 1.018,-6.438 1.406,-11 0.02,-0.239 0.031,-0.479 0.032,-0.719 0.272,-26.08 0.534,-45.634 0.781,-58.625 0.124,-6.494 0.23,-11.383 0.344,-14.531 0.056,-1.559 0.115,-2.687 0.156,-3.281 0.001,-0.006 0,-0.026 0,-0.031 0.636,-3.2 -0.418,-6.688 -2.719,-9 l -0.312,-0.313 c -1.816,-1.804 -4.346,-2.87 -6.907,-2.906 l -19.937,-0.312 c -0.052,-0.001 -0.104,-0.001 -0.156,0 h -0.313 c -2.616,0.005 -5.214,1.085 -7.062,2.937 l -0.282,0.281 c -1.837,1.834 -2.916,4.405 -2.937,7.001 l -0.156,14.78 c -1.875,-5.204 -3.809,-9.895 -5.969,-13.655 -1.79,-3.12 -3.687,-5.824 -6.344,-8.157 -2.657,-2.334 -6.508,-4.375 -10.875,-4.375 -0.093,-0.001 -0.187,-0.001 -0.281,0 l -9.406,0.281 -6.969,-0.5 -0.125,-0.031 c -0.208,-0.017 -0.416,-0.027 -0.625,-0.031 -0.332,-0.027 -0.666,-0.038 -1,-0.031 -0.239,0.002 -0.48,0.011 -0.719,0.031 -0.209,0.024 -0.417,0.056 -0.625,0.094 -0.551,0.079 -1.095,0.205 -1.625,0.375 l -4.125,0.969 0.031,0.125 c -3.971,0.894 -6.379,3.785 -7.281,5.374 -0.965,1.7 -1.31,2.949 -1.625,4.219 -4.519,-4.876 -10.637,-8.145 -17.156,-8.656 -0.021,-0.002 -0.041,0.002 -0.063,0 -0.557,-0.09 -1.122,-0.132 -1.687,-0.125 h -0.281 c -0.24,0.002 -0.48,0.012 -0.719,0.031 -0.335,0.025 -0.669,0.067 -1,0.125 -0.465,0.072 -0.925,0.176 -1.375,0.313 -0.191,0.061 -0.342,0.185 -0.531,0.25 -5.103,1.725 -9.701,4.106 -13.282,7.937 -0.265,0.284 -0.468,0.637 -0.718,0.938 -0.236,-0.347 -0.453,-0.831 -0.688,-1.094 -1.228,-1.376 -2.266,-1.959 -3.062,-2.375 -1.593,-0.833 -2.498,-0.991 -3.375,-1.188 -1.755,-0.393 -3.279,-0.545 -5.188,-0.687 -3.816,-0.285 -8.915,-0.375 -15.687,-0.375 H 71.749 c -0.628,-0.008 -1.257,0.045 -1.875,0.156 -4,0.762 -6.396,3.577 -7.437,5.344 -1.041,1.766 -1.371,3.072 -1.657,4.312 -0.572,2.481 -0.727,4.797 -0.812,7.625 -0.001,0.094 -0.001,0.188 0,0.282 v 0.906 c -0.002,0.125 -0.002,0.25 0,0.375 l 1.469,39.812 v 0.156 c -0.005,2.253 -0.17,4.328 -0.375,6.375 -0.287,-0.804 -0.58,-1.192 -0.844,-2.219 -1.406,-5.466 -2.281,-13.715 -2.281,-24.281 v -4.438 c 0,-7.448 0.367,-14.841 1.125,-22.186 0.333,-3.201 -0.995,-6.531 -3.438,-8.625 -2.079,-1.782 -2.858,-1.85 -3.781,-2.219 -0.923,-0.369 -1.822,-0.669 -2.813,-0.969 -1.615,-0.49 -3.764,-1.033 -6.062,-1.594 -0.011,-0.002 -0.02,0.003 -0.031,0 -0.747,-0.268 -1.524,-0.447 -2.313,-0.531 -0.207,-0.027 -0.416,-0.049 -0.625,-0.062 -0.124,-0.013 -0.249,-0.024 -0.375,-0.032 -0.208,-0.007 -0.416,-0.007 -0.625,0 -0.334,0.004 -0.668,0.025 -1,0.063 -0.262,0.031 -0.522,0.072 -0.781,0.125 -0.072,0.01 -0.146,0.02 -0.219,0.031 -0.114,0.029 -0.229,0.06 -0.344,0.094 -0.316,0.078 -0.63,0.172 -0.937,0.281 -0.996,0.339 -1.939,0.836 -2.781,1.469 -1.364,-2.571 -3.904,-4.487 -6.75,-5.094 -6.069,-1.289 -11.413,-2.031 -16.344,-2.031 h -9.844 z"
         style="fill:#ffffff;fill-rule:nonzero"
         id="path32"
         inkscape:connector-curvature="0" />
    </g>
    <g
       style="clip-rule:evenodd;fill-rule:evenodd;stroke-linejoin:round;stroke-miterlimit:2"
       id="g3918"
       transform="matrix(0.26458333,0,0,0.26458333,-98.599455,59.200964)">
      <g
         id="g26"
         transform="translate(589.88329,92.576819)">
        <path
           inkscape:connector-curvature="0"
           id="path24"
           style="fill-rule:nonzero"
           d="m 0,-313.296 -0.094,0.094 c -12.333,0.194 -24.295,2.774 -34,9.656 -0.154,0.108 -0.316,0.201 -0.469,0.313 -0.076,0.051 -0.311,0.186 -0.312,0.187 h -0.031 l -0.032,0.031 c -16.13,10.871 -25.317,28.471 -32.843,39.875 v 0.032 c -0.195,0.297 -0.391,0.594 -0.563,0.906 -0.004,0.008 0.004,0.023 0,0.031 -7.169,12.769 -12.465,25.286 -17.906,36.281 -7.127,-2.79 -16.844,-7.293 -28.594,-10.375 h -0.062 l -0.032,-0.031 h -0.093 c -0.048,-0.011 -0.018,0.009 -0.063,0 -0.045,-0.009 -0.02,0.008 -0.062,0 -3.735,-0.896 -7.309,-0.129 -10.625,1.344 -3.392,1.505 -6.631,3.837 -8.406,7.687 -2.735,5.928 -1.451,11.714 0.312,15.437 0.009,0.019 0.022,0.044 0.031,0.062 0.123,0.265 0.237,0.526 0.375,0.782 l 0.032,0.031 v 0.031 c 5.042,9.032 12.35,15.011 18.499,20.094 4.273,3.532 7.851,6.649 10.75,9.469 -0.009,0.03 -0.022,0.032 -0.031,0.062 -0.03,0.08 -0.031,0.129 -0.062,0.219 h -0.032 c -4.161,12.347 -10.008,28.429 -11.843,45.906 -2.386,-2.066 -4.602,-4.048 -7.219,-6.187 -0.004,-0.003 -0.066,-0.065 -0.094,-0.094 -0.037,-0.03 -0.057,-0.064 -0.094,-0.094 -0.035,-0.034 -0.09,-0.059 -0.125,-0.094 -1.927,-1.907 -3.75,-4.06 -7.593,-6.093 -2.768,-1.463 -6.212,-2.461 -10.344,-1.875 -3.499,0.497 -6.085,2.032 -6.719,2.406 l -0.156,0.094 -0.156,0.125 c -0.008,0.005 -0.025,-0.005 -0.031,0 -0.041,0.025 -0.055,0.069 -0.094,0.093 -0.069,0.049 -0.153,0.076 -0.219,0.125 l 0.031,0.032 c -4.976,3.274 -6.945,8.213 -7.468,11.968 -0.451,3.223 -0.06,5.886 0.312,7.719 0.797,3.93 2.181,7.232 3.5,10.219 2.704,6.126 5.98,11.827 6.875,13.406 l 0.063,0.125 0.062,0.094 c 0.039,0.062 0.084,0.127 0.125,0.187 0.053,0.08 0.102,0.172 0.156,0.25 6.785,11.154 18.223,31.444 31.75,45.532 3.427,3.563 8.339,5.2 13.219,4.406 6.391,-1.037 10.203,-4.857 12.312,-7.313 10.852,11.235 24.325,20.941 41.907,25.657 -0.457,1.803 -0.969,3.46 -1.344,5.468 -0.005,0.023 0.004,0.041 0,0.063 -0.074,0.385 -0.145,0.768 -0.188,1.156 v 0.063 c -0.365,3.605 0.633,6.891 2.063,9.75 1.429,2.858 3.241,5.298 5.844,7.062 1.883,1.277 3.71,2.111 5.312,2.656 v 0.125 l 3.875,0.907 c 0.041,0.01 0.023,-0.009 0.063,0 0.007,0.001 0.023,-0.002 0.031,0 0.078,0.016 0.052,-0.012 0.125,0 21.49,4.702 43.98,7.234 68.156,4.781 h 0.156 c 0.202,-0.027 0.422,-0.058 0.625,-0.094 0.478,-0.033 2.418,0.053 4.968,-0.75 2.674,-0.841 5.597,-2.799 8.282,-6.156 1.935,-2.419 2.786,-5.162 3.187,-7.906 0.402,-2.744 0.363,-5.485 -0.656,-8.219 -1.511,-4.055 -4.086,-6.604 -5.813,-8.156 -0.963,-0.87 -2.033,-1.594 -3.187,-2.188 -6.797,-3.476 -13.287,-6.449 -19.844,-9.5 3.2,-1.634 6.364,-3.434 9.438,-5.5 l 0.031,-0.031 h 0.031 c 0.403,-0.279 0.782,-0.589 1.156,-0.906 0.018,-0.015 0.045,-0.016 0.063,-0.032 v -0.03 c 27.597,-23.041 34.643,-53.886 34.781,-78.125 0.515,-0.225 0.921,-0.417 1.469,-0.656 17.634,-8.06 27.968,-11.921 37.095,-16.032 l 0.092,-0.063 0.094,-0.031 c 0.045,-0.025 0.079,-0.068 0.125,-0.094 0.063,-0.035 0.124,-0.056 0.188,-0.094 l -0.032,-0.031 c 2.684,-1.463 5.357,-3.676 7.313,-6.844 1.998,-3.233 3.136,-7.564 2.219,-12.187 -0.878,-4.425 -3.476,-7.864 -6.438,-10.063 -2.931,-2.176 -6.169,-3.309 -9.187,-3.718 -0.032,-0.004 -0.063,-0.027 -0.093,-0.032 -0.277,-0.042 -0.545,-0.064 -0.531,-0.062 l -0.188,-0.063 h -0.156 c -9.986,-1.43 -18.836,-1.397 -26.938,-1.781 0.698,-17.315 4.782,-36.342 2.844,-59.999 h 0.031 c -0.016,-0.415 -0.035,-0.599 -0.031,-0.5 -0.46,-12.052 -1.72,-28.118 -13.094,-44.875 v -0.031 l -0.031,-0.032 c -0.163,-0.232 -0.324,-0.465 -0.5,-0.687 -0.019,-0.023 -0.045,-0.039 -0.062,-0.063 -11.979,-15.415 -31.248,-22.065 -49.469,-24.375 -4.545,-0.576 -9.115,-0.905 -13.625,-0.937 z" />
      </g>
      <g
         id="g38"
         transform="translate(503.69629,-6.065181)">
        <path
           inkscape:connector-curvature="0"
           id="path36"
           style="fill:#ffffff;fill-rule:nonzero"
           d="m 0,-116.109 c -0.291,0.538 -0.532,1.104 -0.719,1.687 0.264,-0.834 0.471,-1.431 0.719,-1.687 m 88.25,-93.531 c -12.62,-0.092 -24.51,2.408 -33.687,9.093 -0.168,0.096 -0.373,0.241 -0.532,0.344 -14.744,9.938 -23.678,26.712 -31.437,38.469 -0.133,0.203 -0.258,0.412 -0.375,0.625 -7.813,13.911 -13.447,28.111 -19.781,40.25 -7.757,-2.547 -19.261,-8.467 -32.375,-11.906 -0.01,-0.002 -0.023,0.002 -0.032,0 -4.31,-1.121 -11.442,1.788 -13.5,6.25 -2.062,4.471 -1.131,8.227 0.313,11.25 0.088,0.19 0.181,0.378 0.281,0.562 4.492,8.046 11.174,13.614 17.313,18.687 5.253,4.344 9.899,8.266 13.249,11.844 -0.279,0.83 -0.5,1.562 -0.937,3 -0.052,0.167 -0.074,0.169 -0.125,0.343 -5.013,14.876 -12.202,34.419 -12.219,54.688 -4.761,-4.232 -9.607,-8.523 -15.062,-12.969 -0.087,-0.083 -0.137,-0.137 -0.219,-0.219 -2.182,-2.144 -3.266,-3.599 -6.563,-5.343 -1.711,-0.905 -4.72,-1.712 -7.312,-1.344 -2.593,0.368 -4.066,1.304 -4.875,1.781 -0.074,0.052 -0.146,0.104 -0.219,0.156 -3.544,2.217 -5.117,6.136 -5.469,8.657 -0.352,2.52 -0.061,4.345 0.282,6.031 0.683,3.372 1.874,6.285 3.156,9.187 2.562,5.806 5.732,11.337 6.656,12.969 0.061,0.096 0.123,0.189 0.188,0.281 6.866,11.269 18.323,31.478 31.219,44.907 2.232,2.321 5.633,3.455 8.812,2.937 5.363,-0.87 7.865,-3.811 9.813,-6.156 1.065,-1.283 1.944,-2.603 2.749,-3.906 11.987,13.679 27.28,25.381 48.501,29.718 -0.92,3.157 -1.791,6.411 -2.469,10.063 -0.053,0.269 -0.095,0.541 -0.125,0.812 -0.456,4.512 2.686,10.112 5.75,12.188 3.019,2.048 5.402,2.47 7.5,2.906 v 0.031 c 0.029,0.008 0.063,-0.007 0.094,0 21.16,4.635 43.109,7.077 66.656,4.688 0.135,-0.018 0.27,-0.038 0.406,-0.063 2.425,-0.348 5.759,0.483 10.219,-5.093 2.229,-2.788 2.909,-8.14 1.75,-11.25 -1.16,-3.11 -2.828,-4.711 -4.469,-6.188 -0.642,-0.578 -1.357,-1.073 -2.125,-1.469 -9.985,-5.106 -19.552,-9.415 -29.406,-14.031 6.325,-2.566 12.635,-5.62 18.5,-9.562 0.281,-0.195 0.552,-0.403 0.812,-0.625 27.518,-22.932 33.577,-53.891 33.094,-77.657 1.301,-0.591 2.807,-1.238 4.406,-1.937 3.653,-1.596 8.215,-3.416 8.094,-3.375 0.2,-0.076 0.398,-0.16 0.594,-0.25 12.957,-5.351 18.97,-7.674 28.156,-12.281 0.073,-0.041 0.146,-0.083 0.219,-0.125 3.988,-2.126 8.449,-7.102 7.125,-13.782 -1.24,-6.252 -6.996,-9.227 -11.469,-9.812 -0.403,-0.062 -0.594,-0.098 -0.938,-0.156 -11.341,-1.625 -21.767,-1.102 -31.468,-1.938 -0.039,-19.515 5.213,-39.592 3.125,-64.593 -0.007,-0.158 -0.026,-0.342 -0.032,-0.5 -0.454,-11.896 -1.566,-26.556 -12.218,-42.25 -0.12,-0.171 -0.245,-0.338 -0.375,-0.5 -10.786,-13.93 -28.704,-20.315 -46.188,-22.531 -4.371,-0.555 -8.747,-0.876 -13.031,-0.906" />
      </g>
      <g
         id="g42"
         transform="translate(545.79729,-14.659181)">
        <path
           inkscape:connector-curvature="0"
           id="path40"
           style="fill-rule:nonzero"
           d="m 0,-104.204 c 6.268,-1.622 14.549,-0.758 20.169,2.956 C 19.375,-111.151 3.572,-112.185 0,-104.204 m 53.132,9.635 c 5.572,-0.661 14.923,3.538 18.406,8.97 2.483,-12.125 -15.055,-16.833 -18.406,-8.97 m -7.67,8.432 c 1.314,-0.468 2.719,-0.877 3.121,-0.907 0.944,-0.179 0.592,-0.493 0.086,-0.905 -5.769,-4.627 -13.562,-6.936 -20.502,-7.374 -5.301,-0.299 -5.995,-0.005 -7.461,3.153 -3.014,6.5 -4.885,17.665 -3.351,20.005 0.448,0.803 0.464,0.694 1.144,0.173 9.236,-7.297 17.925,-10.924 26.963,-14.145 m -9.114,18.063 c 3.708,-5.365 9.588,-12.457 11.964,-17.079 -2.522,0.426 -16.124,4.638 -17.245,6.997 0.566,2.125 1.45,8.082 2.809,10.814 0.997,2.141 1.645,0.465 2.472,-0.732 M -57.057,33.067 c 3.403,-4.369 8.384,-14.984 6.166,-18.141 -13.751,-9.929 -29.751,-24.323 -40.522,-34.732 3.37,8.711 19.266,36.956 34.356,52.872 z M 55.768,45.907 C 78.624,35.585 91.014,9.024 93.534,-11.389 c 1.345,-12.623 -0.03,-27.593 -3.638,-37.737 -2.67,-6.73 -5.88,-8.959 -12.772,-8.269 -12.416,2.078 -22.096,6.268 -32.781,8.411 -12.344,1.611 -21.683,-0.919 -28.843,-6.505 -5.16,-3.316 -11.067,-7.676 -15.384,-11.358 -6.005,-3.961 -11.448,-10.002 -20.926,-8.566 -19.733,6.133 -28.103,29.934 -30.735,47.997 -2.465,27.287 8.524,47.793 25.704,63.764 29.316,23.371 50.87,23.085 81.609,9.559 M 74.724,85.832 C 59.42,77.374 39.941,68.693 24.009,62.652 22.928,62.252 22.2,62.589 22.2,63.36 c -1.894,5.315 -4.596,11.758 -5.541,16.673 -0.37,1.271 0.168,1.133 1.303,1.457 15.492,2.887 44.903,6.465 56.762,4.342 M 16.759,85.365 c -3.256,-0.679 -5.714,-1.704 -5.447,-4.334 1.392,-7.485 3.546,-13.595 5.837,-20.218 -31.61,-1.864 -49.131,-19.411 -63.656,-39.985 -2.067,4.247 -7.168,17.975 -12.206,18.792 -11.362,-11.833 -22.901,-31.714 -29.894,-43.189 -1.948,-3.442 -12.001,-20.965 -8.035,-23.447 1.806,-1.065 2.348,-0.778 6.934,3.667 13.803,11.176 25.149,22.585 37.047,31.727 -0.979,-2.616 -2.084,-6.103 -2.894,-8.984 -6.199,-22.573 3.031,-49.037 9.676,-68.795 0.954,-3.241 3.361,-8.157 1.122,-10.607 -8.683,-10.767 -24.916,-19.229 -31.473,-30.973 -1.032,-2.161 -0.195,-3.994 1.627,-3.512 14.086,3.689 27.838,12.697 39.456,13.521 0.507,0.005 1.855,-1.369 1.855,-1.89 7.928,-13.976 13.877,-30.085 22.118,-44.76 8.13,-12.318 17.34,-28.281 29.131,-36.017 16.851,-12.705 63.201,-8.912 79.516,12.159 9.45,13.922 10.077,25.606 10.516,37.477 2.26,25.863 -4.669,47.519 -2.896,71.655 -0.038,0.878 0.349,1.459 1.185,1.622 13.714,2.568 26.976,0.937 39.459,2.864 3.861,0.226 4.284,3.305 1.173,4.964 -8.843,4.435 -14.461,6.616 -27.474,11.99 -2.568,0.868 -15.45,6.495 -17.04,7.443 -1.103,0.657 -2.524,2.187 -2.273,4.357 1.055,22.36 -3.552,51.389 -29.455,72.975 -12.121,8.147 -27.299,12.999 -39.852,15.679 19.024,10.231 35.081,16.595 51.785,25.137 3.909,3.514 1.039,4.721 -2.25,5.195 C 58.064,92.14 37.254,89.86 16.759,85.365" />
      </g>
      <g
         id="g46"
         transform="translate(599.67729,47.666819)">
        <path
           inkscape:connector-curvature="0"
           id="path44"
           style="fill:#ffff00;fill-rule:nonzero"
           d="m 0,23.529 c -7.069,-0.479 -19.697,-1.967 -28.082,-3.309 -4.265,-0.681 -7.844,-1.242 -7.955,-1.245 -0.111,-0.004 -0.411,-0.137 -0.665,-0.3 -0.375,-0.237 -0.32,-0.856 0.289,-3.24 0.775,-3.039 4.813,-14.431 5.303,-14.961 0.82,-0.887 29.987,11.871 45.56,19.93 l 5.789,2.996 -2.076,0.227 C 15.274,23.942 5.298,23.888 0,23.529" />
      </g>
      <g
         id="g50"
         transform="translate(563.27729,-109.12318)">
        <path
           inkscape:connector-curvature="0"
           id="path48"
           style="fill:#ffff00;fill-rule:nonzero"
           d="M 0,22.005 C -1.335,19.51 0.709,8.056 3.514,2.323 c 1.263,-2.585 1.978,-2.977 5.414,-2.975 5.307,0.003 11.91,1.565 16.581,3.923 1.949,0.984 5.94,3.464 5.94,3.692 0,0.05 -1.242,0.492 -2.762,0.981 C 19.171,11.015 8.978,16.136 2.387,21.16 0.48,22.613 0.35,22.659 0,22.005" />
      </g>
      <g
         id="g54"
         transform="translate(580.31829,-99.275181)">
        <path
           inkscape:connector-curvature="0"
           id="path52"
           style="fill:#d4aa00;fill-rule:nonzero"
           d="M 0,17.71 C -0.691,16.874 -1.493,14.466 -2.39,10.535 L -3.277,6.647 -2.205,5.731 C -1.615,5.227 0.494,4.168 2.483,3.377 6.148,1.92 13.031,-0.33 13.227,-0.135 13.437,0.075 2.668,15.464 0.615,17.887 0.484,18.04 0.208,17.961 0,17.71" />
      </g>
      <g
         id="g58"
         transform="translate(485.74129,-30.341181)">
        <path
           inkscape:connector-curvature="0"
           id="path56"
           style="fill:#ffff00;fill-rule:nonzero"
           d="M 0,45.032 C -8.907,34.776 -21.481,15.627 -28.453,1.703 c -2.357,-4.707 -2.287,-4.871 0.832,-1.969 11.726,10.913 23.956,21.424 32.213,27.684 3.878,2.94 4.711,3.735 4.877,4.65 0.266,1.471 -0.908,5.9 -2.449,9.235 C 5.634,44.302 3.351,48.2 2.982,48.194 2.851,48.192 1.509,46.769 0,45.032" />
      </g>
    </g>
    <g
       style="clip-rule:evenodd;fill-rule:evenodd;stroke-linejoin:round;stroke-miterlimit:2"
       transform="matrix(0.13062718,0,0,0.11905911,14.152209,95.478273)"
       id="g62">
      <path
         d="m 0,-96.44 c 14.338,0 23.268,1.687 26.79,5.061 7.144,10.516 10.715,20.339 10.715,29.467 0,14.287 -8.036,24.805 -24.11,31.552 -5.556,1.984 -10.915,2.977 -16.074,2.977 h -4.167 c -3.572,0 -8.831,-0.695 -15.776,-2.084 -0.843,18.107 -1.439,27.93 -1.785,29.467 l -13.99,-0.594 c -1.389,-1.092 -2.283,-13.296 -2.679,-36.613 0.794,-38.695 2.579,-58.043 5.357,-58.043 l 3.573,-0.595 L 0,-96.44"
         style="fill-rule:nonzero"
         id="path60"
         inkscape:connector-curvature="0" />
    </g>
    <g
       style="clip-rule:evenodd;fill-rule:evenodd;stroke-linejoin:round;stroke-miterlimit:2"
       transform="matrix(0.13062718,0,0,0.11905911,21.462236,95.478153)"
       id="g66">
      <path
         d="m 0,-94.355 c 5.309,0 10.766,2.183 16.371,6.548 4.366,4.564 6.549,11.014 6.549,19.348 v 3.869 l -1.786,32.743 c 0.496,11.906 1.488,17.859 2.976,17.859 14.487,1.737 21.73,2.927 21.73,3.571 l 1.785,7.145 c 0,0.396 -9.426,1.488 -28.277,3.273 -20.439,0 -30.659,-13.493 -30.659,-40.481 v -2.679 l 2.977,-48.815 c 0.397,-0.397 3.175,-1.191 8.334,-2.382"
         style="fill-rule:nonzero"
         id="path64"
         inkscape:connector-curvature="0" />
    </g>
    <g
       style="clip-rule:evenodd;fill-rule:evenodd;stroke-linejoin:round;stroke-miterlimit:2"
       transform="matrix(0.13062718,0,0,0.11905911,35.216757,95.815093)"
       id="g70">
      <path
         d="m 0,-93.762 c 12.948,0 22.473,2.778 28.575,8.334 v 0.521 l 0.298,-0.297 h 0.297 c 1.984,3.819 2.976,8.681 2.976,14.585 v 4.613 l -2.38,42.565 0.297,13.693 c -0.248,4.762 -0.843,7.143 -1.786,7.143 -3.224,1.34 -7.293,2.01 -12.204,2.01 H 5.655 c -0.546,0 -1.042,-3.052 -1.488,-9.153 -0.596,0 -2.977,1.438 -7.144,4.316 C -8.781,-1.811 -16.223,0 -25.301,0 c -5.656,0 -11.807,-3.821 -18.455,-11.46 -3.572,-5.159 -5.358,-10.765 -5.357,-16.818 v -1.488 c -10e-4,-8.285 1.884,-15.429 5.655,-21.432 4.961,-4.762 13.196,-7.143 24.705,-7.143 l 10.121,0.298 0.297,-11.162 0.298,-1.117 -0.298,-0.819 0.298,-2.901 -0.298,-0.298 h -0.297 c -8.533,0.446 -13.395,1.513 -14.586,3.199 -3.969,-3.472 -8.036,-8.16 -12.204,-14.063 0,-2.531 7.145,-4.987 21.432,-7.368 L 0,-93.762"
         style="fill-rule:nonzero"
         id="path68"
         inkscape:connector-curvature="0" />
    </g>
    <g
       style="clip-rule:evenodd;fill-rule:evenodd;stroke-linejoin:round;stroke-miterlimit:2"
       transform="matrix(0.13062718,0,0,0.11905911,42.196166,95.478393)"
       id="g74">
      <path
         d="m 0,-94.357 c 18.256,1.984 27.781,3.175 28.575,3.571 l 0.298,2.084 -0.298,26.491 c 0,10.022 3.175,15.777 9.525,17.264 l 2.381,0.298 c 7.938,-1.141 11.907,-2.529 11.907,-4.167 2.381,-2.778 3.571,-7.739 3.572,-14.883 v -4.465 l -0.298,-13.692 c 0,-7.342 1.091,-11.013 3.275,-11.013 l 6.25,-1.191 c 1.488,0.546 2.48,6.201 2.976,16.967 v 5.953 c 0,15.726 -2.381,26.739 -7.143,33.04 -2.581,3.125 -9.624,6.499 -21.134,10.12 -1.786,0 -2.679,2.48 -2.679,7.441 l -0.298,0.298 1.786,16.371 C 38.695,-1.29 38.199,0 37.207,0 30.262,-0.447 26.789,-1.141 26.789,-2.084 l -3.274,-29.467 c -1.389,-0.794 -8.236,-3.176 -20.538,-7.145 -4.664,-2.281 -8.038,-5.457 -10.122,-9.524 -1.785,-3.324 -3.472,-13.048 -5.059,-29.171 l -0.596,-9.525 c 0,-3.274 4.069,-5.656 12.204,-7.144 l 0.298,-0.297 H 0"
         style="fill-rule:nonzero"
         id="path72"
         inkscape:connector-curvature="0" />
    </g>
    <g
       style="clip-rule:evenodd;fill-rule:evenodd;stroke-linejoin:round;stroke-miterlimit:2"
       transform="matrix(0.13062718,0,0,0.11905911,58.672432,95.478273)"
       id="g78">
      <path
         d="m 0,-96.738 h 9.823 c 3.919,0 8.682,0.596 14.287,1.786 l -3.273,30.956 c -1.34,3.374 -7.491,5.061 -18.455,5.061 -12.304,0 -19.944,2.083 -22.92,6.251 -2.778,4.415 -4.167,9.475 -4.167,15.179 0.744,12.304 2.034,18.455 3.869,18.455 0,1.092 2.184,2.183 6.549,3.275 l 1.19,0.298 c 12.849,-1.191 19.596,-1.985 20.242,-2.382 l 1.19,-10.12 -0.298,-0.298 H 7.739 l -18.157,1.191 c -1.935,-3.622 -3.025,-7.293 -3.273,-11.013 0,-7.64 4.563,-13.097 13.691,-16.371 l 5.358,-0.596 h 0.298 c 6.002,0 11.459,2.084 16.371,6.251 2.183,4.316 3.275,11.46 3.275,21.431 C 24.706,-10.715 23.02,-2.381 20.241,-2.381 17.463,-0.793 13.196,0 7.441,0 H 7.145 c -12.701,0 -24.707,-2.281 -36.017,-6.845 -13.891,-7.888 -20.836,-19.497 -20.836,-34.827 0,-15.875 6.846,-31.055 20.538,-45.541 6.648,-6.35 16.371,-9.525 29.17,-9.525"
         style="fill-rule:nonzero"
         id="path76"
         inkscape:connector-curvature="0" />
    </g>
    <g
       style="clip-rule:evenodd;fill-rule:evenodd;stroke-linejoin:round;stroke-miterlimit:2"
       transform="matrix(0.13062718,0,0,0.11905911,63.804904,95.478393)"
       id="g82">
      <path
         d="m 0,-91.678 c 5.854,1.389 9.129,2.381 9.823,2.977 -0.794,7.689 -1.191,15.428 -1.19,23.216 v 4.465 c 0,22.176 3.472,35.67 10.418,40.482 1.537,0.595 2.927,0.893 4.167,0.893 3.373,0 5.655,-1.389 6.845,-4.168 1.39,-5.258 2.084,-11.012 2.084,-17.263 L 30.659,-81.26 v -0.894 c 0.149,-4.961 0.744,-7.54 1.786,-7.739 h 13.693 c 13.295,0.001 19.942,0.497 19.942,1.488 1.786,10.964 2.679,21.978 2.68,33.04 v 2.084 C 68.759,-27.285 62.905,-10.715 51.197,-3.572 45.889,-1.191 39.341,0 31.552,0 15.578,0 4.763,-7.64 -0.893,-22.919 c -1.984,-6.449 -2.976,-13.196 -2.976,-20.241 1.984,-30.956 3.175,-47.129 3.571,-48.518 H 0"
         style="fill-rule:nonzero"
         id="path80"
         inkscape:connector-curvature="0" />
    </g>
    <g
       style="clip-rule:evenodd;fill-rule:evenodd;stroke-linejoin:round;stroke-miterlimit:2"
       transform="matrix(0.13062718,0,0,0.11905911,74.585042,92.289033)"
       id="g86">
      <path
         d="m 0,-40.185 22.324,10.418 1.488,54.472 -0.893,0.892 -3.869,-0.297 -18.753,1.489 -3.274,-0.596 2.381,-66.08 0.298,-0.298 H 0 m 9.524,-26.789 c 6.351,0 11.212,3.274 14.586,9.823 l 0.595,3.571 c 0,6.35 -4.563,10.022 -13.692,11.014 H 8.632 c -8.136,-0.942 -12.204,-4.515 -12.204,-10.716 0,-6.349 4.266,-10.914 12.8,-13.692 h 0.296"
         style="fill-rule:nonzero"
         id="path84"
         inkscape:connector-curvature="0" />
    </g>
    <g
       style="clip-rule:evenodd;fill-rule:evenodd;stroke-linejoin:round;stroke-miterlimit:2"
       transform="matrix(0.13062718,0,0,0.11905911,80.417413,95.478513)"
       id="g90">
      <path
         d="m 0,-96.144 8.036,0.595 10.121,-0.297 c 5.655,0 11.41,10.02 17.264,30.062 4.911,14.586 9.872,25.699 14.883,33.338 h 0.595 l 0.596,-61.912 0.297,-0.298 h 0.298 l 19.943,0.298 0.298,0.297 c -0.447,0 -0.943,26.095 -1.488,78.284 -0.744,8.732 -1.638,13.097 -2.679,13.097 l -3.572,-0.297 h -1.786 l -12.502,1.19 h -2.381 c -4.365,0 -6.549,-0.992 -6.549,-2.976 C 30.659,-28.775 25.103,-40.879 24.706,-41.078 H 24.408 L 24.11,-0.298 23.812,0 -5.358,-0.894 c -1.737,0 -2.828,-16.669 -3.274,-50.007 0,-29.368 1.191,-44.053 3.571,-44.053 L 0,-96.144"
         style="fill-rule:nonzero"
         id="path88"
         inkscape:connector-curvature="0" />
    </g>
  </g>
</svg>
