<?xml version="1.0" encoding="UTF-8" standalone="no"?>
<!DOCTYPE svg PUBLIC "-//W3C//DTD SVG 1.1//EN" "http://www.w3.org/Graphics/SVG/1.1/DTD/svg11.dtd">
<svg width="100%" height="100%" viewBox="0 0 895 312" version="1.1" xmlns="http://www.w3.org/2000/svg" xmlns:xlink="http://www.w3.org/1999/xlink" xml:space="preserve" xmlns:serif="http://www.serif.com/" style="fill-rule:evenodd;clip-rule:evenodd;stroke-linejoin:round;stroke-miterlimit:2;">
    <g id="svg2" transform="matrix(1,0,0,1,-84.9983,-196.688)">
        <g>
            <g>
                <g>
                    <g>
                        <g>
                            <text x="107.011px" y="426.058px" style="font-family:'ArialMT', 'Arial', sans-serif;font-size:30px;">E <tspan x="154.021px 175.686px 202.685px 221.01px 248.01px " y="426.058px 426.058px 426.058px 426.058px 426.058px ">N T E</tspan></text>
                            <text x="295.019px" y="426.058px" style="font-family:'ArialMT', 'Arial', sans-serif;font-size:30px;">R</text>
                            <text x="343.144px" y="426.058px" style="font-family:'ArialMT', 'Arial', sans-serif;font-size:30px;">T</text>
                            <text x="386.245px" y="426.058px" style="font-family:'ArialMT', 'Arial', sans-serif;font-size:30px;">A <tspan x="433.255px 441.589px 468.589px 490.254px 517.254px 542.244px 569.243px 589.253px 616.253px 637.918px 664.917px " y="426.058px 426.058px 426.058px 426.058px 426.058px 426.058px 426.058px 426.058px 426.058px 426.058px 426.058px ">I N M E N T</tspan></text>
                        </g>
                    </g>
                </g>
            </g>
        </g>
        <g transform="matrix(1,0,0,1,859.875,509.984)">
            <path d="M0,-313.296L-0.094,-313.202C-12.427,-313.008 -24.389,-310.428 -34.094,-303.546C-34.248,-303.438 -34.41,-303.345 -34.563,-303.233C-34.639,-303.182 -34.874,-303.047 -34.875,-303.046L-34.906,-303.046L-34.938,-303.015C-51.068,-292.144 -60.255,-274.544 -67.781,-263.14L-67.781,-263.108C-67.976,-262.811 -68.172,-262.514 -68.344,-262.202C-68.348,-262.194 -68.34,-262.179 -68.344,-262.171C-75.513,-249.402 -80.809,-236.885 -86.25,-225.89C-93.377,-228.68 -103.094,-233.183 -114.844,-236.265L-114.906,-236.265L-114.938,-236.296L-115.031,-236.296C-115.079,-236.307 -115.049,-236.287 -115.094,-236.296C-115.139,-236.305 -115.114,-236.288 -115.156,-236.296C-118.891,-237.192 -122.465,-236.425 -125.781,-234.952C-129.173,-233.447 -132.412,-231.115 -134.187,-227.265C-136.922,-221.337 -135.638,-215.551 -133.875,-211.828C-133.866,-211.809 -133.853,-211.784 -133.844,-211.766C-133.721,-211.501 -133.607,-211.24 -133.469,-210.984L-133.437,-210.953L-133.437,-210.922C-128.395,-201.89 -121.087,-195.911 -114.938,-190.828C-110.665,-187.296 -107.087,-184.179 -104.188,-181.359C-104.197,-181.329 -104.21,-181.327 -104.219,-181.297C-104.249,-181.217 -104.25,-181.168 -104.281,-181.078L-104.313,-181.078C-108.474,-168.731 -114.321,-152.649 -116.156,-135.172C-118.542,-137.238 -120.758,-139.22 -123.375,-141.359C-123.379,-141.362 -123.441,-141.424 -123.469,-141.453C-123.506,-141.483 -123.526,-141.517 -123.563,-141.547C-123.598,-141.581 -123.653,-141.606 -123.688,-141.641C-125.615,-143.548 -127.438,-145.701 -131.281,-147.734C-134.049,-149.197 -137.493,-150.195 -141.625,-149.609C-145.124,-149.112 -147.71,-147.577 -148.344,-147.203L-148.5,-147.109L-148.656,-146.984C-148.664,-146.979 -148.681,-146.989 -148.687,-146.984C-148.728,-146.959 -148.742,-146.915 -148.781,-146.891C-148.85,-146.842 -148.934,-146.815 -149,-146.766L-148.969,-146.734C-153.945,-143.46 -155.914,-138.521 -156.437,-134.766C-156.888,-131.543 -156.497,-128.88 -156.125,-127.047C-155.328,-123.117 -153.944,-119.815 -152.625,-116.828C-149.921,-110.702 -146.645,-105.001 -145.75,-103.422L-145.687,-103.297L-145.625,-103.203C-145.586,-103.141 -145.541,-103.076 -145.5,-103.016C-145.447,-102.936 -145.398,-102.844 -145.344,-102.766C-138.559,-91.612 -127.121,-71.322 -113.594,-57.234C-110.167,-53.671 -105.255,-52.034 -100.375,-52.828C-93.984,-53.865 -90.172,-57.685 -88.063,-60.141C-77.211,-48.906 -63.738,-39.2 -46.156,-34.484C-46.613,-32.681 -47.125,-31.024 -47.5,-29.016C-47.505,-28.993 -47.496,-28.975 -47.5,-28.953C-47.574,-28.568 -47.645,-28.185 -47.688,-27.797L-47.688,-27.734C-48.053,-24.129 -47.055,-20.843 -45.625,-17.984C-44.196,-15.126 -42.384,-12.686 -39.781,-10.922C-37.898,-9.645 -36.071,-8.811 -34.469,-8.266L-34.469,-8.141L-30.594,-7.234C-30.553,-7.224 -30.571,-7.243 -30.531,-7.234C-30.524,-7.233 -30.508,-7.236 -30.5,-7.234C-30.422,-7.218 -30.448,-7.246 -30.375,-7.234C-8.885,-2.532 13.605,0 37.781,-2.453L37.937,-2.453C38.139,-2.48 38.359,-2.511 38.562,-2.547C39.04,-2.58 40.98,-2.494 43.53,-3.297C46.204,-4.138 49.127,-6.096 51.812,-9.453C53.747,-11.872 54.598,-14.615 54.999,-17.359C55.401,-20.103 55.362,-22.844 54.343,-25.578C52.832,-29.633 50.257,-32.182 48.53,-33.734C47.567,-34.604 46.497,-35.328 45.343,-35.922C38.546,-39.398 32.056,-42.371 25.499,-45.422C28.699,-47.056 31.863,-48.856 34.937,-50.922L34.968,-50.953L34.999,-50.953C35.402,-51.232 35.781,-51.542 36.155,-51.859C36.173,-51.874 36.2,-51.875 36.218,-51.891L36.218,-51.921C63.815,-74.962 70.861,-105.807 70.999,-130.046C71.514,-130.271 71.92,-130.463 72.468,-130.702C90.102,-138.762 100.436,-142.623 109.563,-146.734L109.655,-146.797L109.749,-146.828C109.794,-146.853 109.828,-146.896 109.874,-146.922C109.937,-146.957 109.998,-146.978 110.062,-147.016L110.03,-147.047C112.714,-148.51 115.387,-150.723 117.343,-153.891C119.341,-157.124 120.479,-161.455 119.562,-166.078C118.684,-170.503 116.086,-173.942 113.124,-176.141C110.193,-178.317 106.955,-179.45 103.937,-179.859C103.905,-179.863 103.874,-179.886 103.844,-179.891C103.567,-179.933 103.299,-179.955 103.313,-179.953L103.125,-180.016L102.969,-180.016C92.983,-181.446 84.133,-181.413 76.031,-181.797C76.729,-199.112 80.813,-218.139 78.875,-241.796L78.906,-241.796C78.89,-242.211 78.871,-242.395 78.875,-242.296C78.415,-254.348 77.155,-270.414 65.781,-287.171L65.781,-287.202L65.75,-287.234C65.587,-287.466 65.426,-287.699 65.25,-287.921C65.231,-287.944 65.205,-287.96 65.188,-287.984C53.209,-303.399 33.94,-310.049 15.719,-312.359C11.174,-312.935 6.604,-313.264 2.094,-313.296L0,-313.296Z" style="fill-rule:nonzero;"/>
        </g>
        <g transform="matrix(1,0,0,1,469.812,395.919)">
            <path d="M0,-129.593L0.875,-128.718C-9.924,-127.162 -19.701,-123.22 -27.281,-116.062C-27.341,-116.006 -27.41,-115.962 -27.469,-115.905C-27.599,-115.789 -27.719,-115.652 -27.844,-115.53L-27.937,-115.468L-28,-115.374C-29.559,-113.727 -30.935,-112.008 -32.344,-110.312C-32.67,-112.103 -33.057,-113.968 -33.906,-116.093L-33.969,-116.187C-34.517,-117.548 -37.019,-123.511 -43.719,-125.968C-46.271,-126.905 -49.017,-127.132 -51.688,-126.624L-57.938,-125.437L-62,-124.656L-62,-123.937C-64.174,-122.981 -66.176,-121.765 -67.75,-119.999C-69.773,-117.732 -70.744,-115.482 -71.406,-113.593C-72.686,-117.218 -75.267,-120.271 -78.781,-122.031C-78.793,-122.037 -78.802,-122.025 -78.813,-122.031C-80.33,-122.789 -81.208,-123.216 -82.438,-123.468C-82.772,-123.537 -82.977,-123.514 -83.281,-123.531C-83.977,-123.669 -84.665,-123.787 -85.438,-123.906C-86.993,-124.145 -88.927,-124.412 -91.375,-124.718C-96.147,-125.315 -103.034,-126.077 -111.781,-127.03C-112.112,-127.067 -112.203,-127.08 -112.344,-127.093C-112.375,-127.097 -112.406,-127.089 -112.438,-127.093C-112.732,-127.129 -113.015,-127.168 -113.313,-127.187L-113.344,-127.187C-114.099,-127.23 -114.841,-127.197 -115.594,-127.124C-115.604,-127.123 -115.614,-127.125 -115.625,-127.124C-115.761,-127.113 -115.896,-127.078 -116.031,-127.062C-116.072,-127.057 -116.115,-127.067 -116.156,-127.062L-116.469,-127.062L-116.719,-126.999L-116.906,-126.968C-117.348,-126.888 -117.786,-126.807 -118.219,-126.687C-118.251,-126.679 -118.28,-126.664 -118.313,-126.655C-118.767,-126.533 -119.185,-126.321 -119.625,-126.155C-119.675,-126.138 -119.732,-126.144 -119.781,-126.125C-123.706,-125.287 -127.631,-124.148 -131.406,-121.938C-133.457,-120.737 -135.247,-118.992 -136.875,-117C-145.201,-121.539 -154.983,-123.492 -165.625,-123.688C-165.791,-123.706 -165.958,-123.705 -166.125,-123.718C-166.489,-123.747 -166.854,-123.779 -167.219,-123.781L-167.312,-123.781C-167.77,-123.788 -168.222,-123.755 -168.687,-123.718L-168.687,-123.749C-168.838,-123.739 -168.964,-123.7 -169.094,-123.687C-169.133,-123.683 -169.182,-123.691 -169.219,-123.687L-182.75,-122.531L-182.937,-122.531C-183.269,-122.491 -183.609,-122.437 -183.937,-122.374C-183.96,-122.37 -183.978,-122.378 -184,-122.374C-184.041,-122.366 -184.083,-122.352 -184.125,-122.343C-191.571,-121.098 -197.46,-119.835 -202.437,-118.124C-204.823,-117.304 -207.462,-116.308 -210.187,-114.405L-210.219,-114.375C-213.125,-112.337 -217.892,-107.665 -217.906,-100.25L-217.906,-100.219C-217.912,-97.121 -216.966,-94.1 -215.187,-91.563C-213.332,-88.935 -211.457,-86.533 -209.562,-84.313C-213.859,-82.629 -217.896,-80.341 -221.344,-77.031L-221.375,-77.031C-222.244,-76.186 -222.983,-75.217 -223.625,-74.188C-223.633,-74.175 -223.648,-74.169 -223.656,-74.156C-229.079,-65.504 -231.594,-55.356 -231.594,-44.781L-231.594,-44.656C-232.97,-44.86 -234.578,-45.096 -236.25,-45.313C-236.375,-46.674 -236.5,-47.713 -236.594,-49.75L-234.875,-81.594L-234.875,-81.75C-234.868,-81.984 -234.871,-82.203 -234.875,-82.438L-234.875,-86.313C-234.875,-97.334 -238,-108.125 -245.562,-116.031L-245.594,-116.031L-245.594,-116.063C-246.094,-116.575 -246.649,-117.032 -247.219,-117.469C-247.229,-117.478 -247.238,-117.49 -247.25,-117.499C-253.722,-122.531 -261.12,-125.915 -269.062,-126.78C-269.072,-126.783 -269.083,-126.779 -269.093,-126.78C-269.337,-126.807 -269.567,-126.884 -269.812,-126.905L-269.812,-126.843C-271.313,-127.131 -272.853,-127.302 -274.374,-127.124C-274.627,-127.095 -274.876,-127.042 -275.124,-126.999C-275.187,-126.989 -275.25,-126.98 -275.312,-126.969C-275.947,-126.868 -276.57,-126.711 -277.187,-126.531L-277.187,-126.562C-279.32,-126.06 -281.276,-125.581 -282.874,-125.124C-283.545,-124.933 -284.339,-124.699 -285.187,-124.406C-285.536,-124.357 -286.404,-124.181 -287.187,-123.843C-288.753,-123.169 -289.987,-122.137 -291.718,-120.405C-291.762,-120.363 -291.769,-120.294 -291.812,-120.249C-296.93,-125.027 -302.9,-126.693 -308.499,-127.749C-314.185,-128.823 -320.578,-129.219 -327.937,-129.249C-328.184,-129.263 -328.44,-129.28 -328.687,-129.281L-329.03,-129.281L-361.155,-128.687L-361.187,-128.687C-361.898,-128.675 -362.608,-128.613 -363.312,-128.499L-363.343,-128.499L-366.937,-127.906L-371.749,-127.093L-371.624,-126.187C-372.878,-125.596 -374.054,-124.884 -375.093,-123.937C-377.069,-122.136 -378.196,-120.182 -378.749,-119.124C-380.009,-116.718 -380.565,-114.614 -380.968,-112.906C-381.837,-109.222 -382.335,-105.136 -382.812,-99.968C-383.77,-89.589 -384.411,-74.867 -384.812,-55.344C-384.815,-55.157 -384.815,-54.967 -384.812,-54.781C-384.611,-42.985 -384.329,-33.953 -383.843,-27.313C-383.6,-23.984 -383.296,-21.272 -382.874,-18.813C-382.681,-17.685 -382.433,-16.298 -381.905,-14.688C-381.94,-14.795 -381.694,-13.389 -380.843,-11.719C-379.991,-10.048 -378.569,-8.325 -376.405,-6.625C-373.93,-4.682 -370.925,-3.572 -367.78,-3.438L-353.812,-2.844C-346.557,-2.529 -340.137,-7.447 -338.531,-14.531C-338.017,-16.812 -338.018,-17.97 -337.906,-19.313C-337.771,-20.942 -337.621,-22.931 -337.469,-25.438C-337.396,-26.644 -337.304,-28.595 -337.219,-30.344C-336.675,-30.32 -336.138,-30.219 -335.594,-30.219L-331.437,-30.219C-324.37,-30.219 -317.3,-31.596 -310.375,-34.063C-310.356,-34.07 -310.332,-34.055 -310.312,-34.063L-310.312,-34.094C-310.082,-34.174 -309.851,-34.252 -309.625,-34.344L-309.562,-34.344C-305.195,-36.177 -301.189,-38.477 -297.531,-41.063C-296.021,-32.796 -293.223,-25.265 -288.406,-18.906C-280.29,-8.189 -267.184,-2.86 -253.5,-2.844L-253.437,-2.844C-252.996,-2.839 -252.547,-2.869 -252.094,-2.906L-252.031,-2.906C-242.552,-3.804 -235.444,-4.525 -230.531,-5.094C-228.07,-5.378 -226.155,-5.628 -224.594,-5.875C-223.858,-5.99 -223.052,-6.105 -222.062,-6.344C-221.891,-6.385 -220.801,-6.648 -219.562,-7.156C-219.286,-7.27 -217.739,-7.926 -216.219,-9.063C-216.033,-9.201 -215.706,-9.552 -215.469,-9.75C-209.047,-4.125 -201.631,0 -192.781,0C-184.998,0 -177.664,-1.269 -170.937,-3.813C-168.803,-2.145 -165.815,-0.594 -161.844,-0.594L-151.406,-0.594C-145.668,-0.594 -140.228,-1.42 -135.094,-3.281C-135.063,-3.292 -135.031,-3.301 -135.001,-3.313C-134.974,-3.32 -134.813,-3.358 -134.751,-3.375C-134.598,-3.415 -134.513,-3.432 -134.157,-3.563L-134.095,-3.563L-134.032,-3.593C-135.159,-3.147 -134.954,-3.133 -133.47,-3.749L-129.157,-5.53L-129.407,-6.312C-128.004,-7.414 -126.841,-8.606 -126.001,-9.905C-124.442,-12.319 -123.824,-14.578 -123.532,-15.749C-122.823,-18.585 -122.585,-21.187 -122.438,-23.999L-122.438,-24.062C-122.426,-24.396 -122.428,-24.729 -122.438,-25.062L-122.438,-25.155L-122.72,-38.374L-122.72,-38.655L-122.282,-45.999C-120.77,-44.978 -119.307,-43.869 -117.657,-43.062C-117.021,-42.75 -116.362,-42.499 -115.688,-42.28C-110.815,-40.708 -107.508,-39.58 -104.438,-38.53L-102.188,-18.249L-101.688,-13.812L-100.907,-13.812C-100.092,-11.903 -99.008,-10.306 -97.782,-9.062C-95.94,-7.195 -93.967,-6.142 -93.001,-5.687C-90.798,-4.649 -88.919,-4.233 -87.595,-3.968C-84.612,-3.371 -81.566,-3.115 -77.813,-2.874L-77.813,-2.905C-77.516,-2.883 -77.205,-2.847 -76.907,-2.843L-76.845,-2.843C-72.931,-2.843 -69.352,-4.17 -66.376,-6.749C-63.779,-8.999 -62.439,-11.645 -61.751,-13.437C-60.424,-16.887 -60.376,-19.82 -60.376,-21.718L-60.376,-21.749C-60.379,-22.271 -60.412,-22.792 -60.47,-23.312L-60.47,-23.343L-61.656,-34.188C-56.965,-35.792 -52.704,-37.595 -48.938,-40.063C-44.454,-28.288 -35.937,-18.299 -24.25,-11.656C-24.242,-11.653 -24.227,-11.66 -24.22,-11.656C-23.639,-11.324 -23.027,-11.032 -22.407,-10.781C-9.282,-5.486 4.718,-2.844 19.218,-2.844L19.499,-2.844C25.722,-2.844 31.72,-3.492 37.468,-6.156C37.654,-6.242 37.845,-6.284 38.03,-6.375L38.03,-6.406C38.529,-6.624 39.094,-6.862 39.249,-6.938L39.374,-7L39.499,-7.063C38.652,-6.589 38.745,-6.614 39.749,-7.188L42.28,-8.625L42.28,-8.813C44.677,-10.596 46.335,-12.69 47.405,-14.688C47.839,-15.496 48.086,-16.249 48.405,-17.031C57.346,-8.116 69.453,-2.844 82.905,-2.844C92.209,-2.844 100.89,-4.221 108.687,-7.719L108.718,-7.719C109.286,-7.974 109.843,-8.27 110.374,-8.594C110.387,-8.601 110.394,-8.617 110.405,-8.625C112.722,-10.041 114.78,-11.732 116.718,-13.531C118.443,-8.528 122.768,-4.677 128.249,-3.688L131.53,-3.094C132.789,-2.868 134.068,-2.807 135.343,-2.906L135.343,-2.875L152.999,-4.25L155.655,-4.063L155.687,-4.063C158.926,-3.821 162.091,-4.648 164.78,-6.344C165.686,-5.743 166.719,-5.242 167.874,-4.813L167.874,-3.875L172.749,-3.75C173.004,-3.743 173.063,-3.746 172.905,-3.75L172.937,-3.75C172.423,-3.758 173.14,-3.756 173.03,-3.75C172.845,-3.739 172.208,-3.719 173.187,-3.719L174.03,-3.719L201.874,-2.844C205.934,-2.726 209.807,-4.275 212.718,-7.094L212.749,-7.063L212.937,-7.25L213.062,-7.344L213.155,-7.438L213.249,-7.531C213.36,-7.643 213.423,-7.791 213.53,-7.906C214.137,-7.512 214.669,-7.025 215.343,-6.719C219.56,-4.802 223.391,-4.625 226.468,-4.625L228.78,-4.625C228.801,-4.624 228.822,-4.625 228.843,-4.625C229.285,-4.62 229.733,-4.651 230.187,-4.688L230.28,-4.688L241.812,-5.813L242.28,-5.813L245.468,-5.563C245.873,-5.53 246.28,-5.53 246.687,-5.531C252.151,-5.531 255.968,-8.22 258.124,-10.563C259.853,-12.44 260.759,-14.356 261.155,-15.25C262.129,-17.447 262.542,-19.309 262.843,-20.781C263.508,-24.032 263.915,-27.696 264.312,-32.344L264.312,-32.375C264.339,-32.723 264.371,-33.088 264.374,-33.438L264.374,-33.468C264.646,-59.521 264.909,-79.075 265.155,-92.03C265.278,-98.519 265.388,-103.394 265.499,-106.468C265.554,-107.989 265.621,-109.11 265.655,-109.593L265.655,-109.624L265.624,-109.624C265.646,-109.76 265.638,-109.895 265.655,-110.031C266.24,-114.61 264.755,-119.195 261.468,-122.499L261.155,-122.812C258.397,-125.553 254.699,-127.123 250.812,-127.187L250.781,-127.187L230.875,-127.499L230.812,-127.499C230.745,-127.5 230.691,-127.5 230.625,-127.499L230.312,-127.499C226.326,-127.491 222.535,-125.916 219.719,-123.093L219.437,-122.812C217.83,-121.209 216.677,-119.279 215.937,-117.187C214.504,-119.26 212.93,-121.257 210.875,-123.062C207.516,-126.012 202.646,-128.668 196.75,-128.687L196.687,-128.687C196.577,-128.688 196.453,-128.688 196.344,-128.687L196.25,-128.687L187.344,-128.406L187.187,-128.406L180.719,-128.874L180.375,-128.906L180.312,-128.906C180.104,-128.923 179.896,-128.929 179.687,-128.937C179.583,-128.941 179.479,-128.966 179.375,-128.968L179.375,-128.937C178.999,-128.96 178.625,-129.005 178.25,-128.999C178.229,-128.999 178.208,-129 178.187,-128.999C177.853,-128.995 177.497,-128.964 177.156,-128.937L176.969,-128.937C176.716,-128.907 176.468,-128.854 176.219,-128.812C176.156,-128.802 176.093,-128.792 176.031,-128.781C175.396,-128.681 174.772,-128.524 174.156,-128.343L174.156,-128.374L170.031,-127.405L165.094,-126.249L165.344,-125.281C163.154,-123.953 161.568,-122.362 160.5,-120.843C156.187,-123.865 151.239,-125.924 145.875,-126.405C145.768,-126.416 145.67,-126.46 145.562,-126.468L145.562,-126.437C144.848,-126.536 144.128,-126.598 143.406,-126.593L143.094,-126.593C142.75,-126.59 142.382,-126.558 142.031,-126.53L142.031,-126.562C141.568,-126.528 141.111,-126.451 140.656,-126.374C140.615,-126.367 140.571,-126.381 140.531,-126.374L140.531,-126.343C139.877,-126.237 139.229,-126.098 138.594,-125.905L138.531,-125.905L138.469,-125.874C137.154,-125.447 137.005,-125.32 137.906,-125.624C133.524,-124.142 129.217,-122.087 125.469,-119.03C124.941,-119.375 124.395,-119.733 124.063,-119.905C122.013,-120.977 120.192,-121.368 119.469,-121.53C117.38,-121.998 115.537,-122.196 113.563,-122.343C109.493,-122.647 104.316,-122.718 97.5,-122.718L83.813,-122.718C82.89,-122.725 81.971,-122.631 81.063,-122.468L81,-122.468C76.643,-121.638 73.67,-119.263 71.781,-116.999C71.49,-117.294 71.256,-117.633 70.938,-117.905C68.464,-120.026 66.044,-120.866 65.781,-120.968L65.75,-120.999C64.653,-121.439 63.602,-121.769 62.531,-122.093C60.854,-122.602 58.817,-123.102 56.688,-123.624C56.575,-123.665 56.457,-123.681 56.344,-123.718C56.334,-123.721 56.322,-123.715 56.313,-123.718C56.277,-123.727 56.254,-123.741 56.219,-123.749L56.219,-123.718C55.28,-124.022 54.324,-124.261 53.344,-124.374L53.344,-124.406C53.303,-124.41 53.26,-124.401 53.219,-124.406C53,-124.433 52.781,-124.45 52.563,-124.468C52.511,-124.473 52.459,-124.494 52.406,-124.499C52.272,-124.512 52.134,-124.522 52,-124.531L51.844,-124.531C51.556,-124.54 51.288,-124.538 51,-124.531C50.968,-124.53 50.938,-124.531 50.906,-124.531C50.435,-124.522 49.966,-124.489 49.5,-124.437L49.469,-124.437C49.18,-124.403 48.881,-124.364 48.594,-124.312C48.538,-124.304 48.463,-124.293 48.375,-124.281C48.344,-124.275 48.313,-124.256 48.281,-124.249L48.063,-124.218L47.844,-124.156C47.673,-124.113 47.485,-124.081 47.313,-124.031L47.313,-123.999C46.977,-123.911 46.642,-123.83 46.313,-123.718C44.355,-125.534 41.965,-126.865 39.281,-127.437L39.281,-127.468C33.011,-128.8 27.34,-129.593 21.906,-129.593L0,-129.593Z" style="fill-rule:nonzero;"/>
        </g>
        <g transform="matrix(1,0,0,1,481.875,390.919)">
            <path d="M0,-119.593C-0.335,-119.589 -0.668,-119.569 -1,-119.531L-1.094,-119.531C-15.077,-119.34 -27.331,-115.621 -36.063,-107.28C-36.19,-107.169 -36.315,-107.055 -36.438,-106.937C-40.986,-102.125 -44.852,-97.095 -48.125,-91.938C-48.378,-96.667 -48.657,-100.765 -49.219,-103.968C-49.536,-105.775 -49.878,-107.382 -50.625,-109.249C-51.373,-111.117 -52.225,-114.346 -57.5,-116.28C-59.188,-116.901 -61.046,-117.054 -62.813,-116.718L-69.063,-115.531L-69.063,-115.468C-71.829,-114.936 -74.563,-113.404 -76.094,-111.687C-77.973,-109.58 -78.687,-107.603 -79.219,-105.812C-80.283,-102.231 -80.469,-98.854 -80.469,-94.687C-80.47,-94.614 -80.47,-94.541 -80.469,-94.468L-80.156,-81L-80.156,-76.531C-80.156,-71.181 -81.238,-68.821 -81.25,-68.563C-82.182,-68.304 -83.731,-67.983 -85.875,-67.625C-86.174,-67.648 -86.079,-67.469 -86.406,-68.063C-86.803,-68.78 -87.544,-71.077 -87.563,-74.938L-87.563,-75.063L-87.25,-101.437C-87.242,-101.948 -87.273,-102.461 -87.344,-102.968L-87.656,-105.03C-88.113,-108.218 -90.212,-111.125 -93.094,-112.562C-95.876,-113.952 -95.658,-113.5 -96.281,-113.624C-96.905,-113.749 -97.52,-113.856 -98.25,-113.968C-99.711,-114.194 -101.631,-114.446 -104.063,-114.749C-108.775,-115.339 -115.637,-116.11 -124.375,-117.062C-124.657,-117.093 -124.745,-117.094 -125.031,-117.124C-125.249,-117.153 -125.469,-117.173 -125.688,-117.187C-126.198,-117.216 -126.71,-117.205 -127.219,-117.155C-127.47,-117.134 -127.721,-117.103 -127.969,-117.063L-128.062,-117.063C-128.379,-117.004 -128.691,-116.932 -129,-116.844C-129.568,-116.695 -130.123,-116.495 -130.656,-116.25C-134.406,-115.456 -137.787,-114.469 -140.937,-112.625C-143.367,-111.202 -145.881,-108.59 -147.437,-105.406C-155.538,-111.211 -166.113,-113.555 -178.25,-113.719C-178.624,-113.761 -178.999,-113.781 -179.375,-113.781C-179.719,-113.788 -180.063,-113.778 -180.406,-113.75C-180.521,-113.741 -180.636,-113.731 -180.75,-113.719L-194.406,-112.563C-194.668,-112.531 -194.929,-112.489 -195.187,-112.438C-202.614,-111.199 -208.305,-109.977 -212.875,-108.406C-215.16,-107.62 -217.181,-106.844 -219.375,-105.313C-221.57,-103.78 -224.969,-100.557 -224.969,-95.219C-224.977,-93.167 -224.334,-91.117 -223.156,-89.438C-219.691,-84.529 -216.16,-80.483 -212.562,-76.875C-219.304,-75.449 -225.263,-72.925 -229.937,-68.438C-230.523,-67.867 -231.039,-67.226 -231.469,-66.531C-236.342,-58.774 -238.656,-49.583 -238.656,-39.781L-238.656,-38.281C-238.656,-36.706 -238.473,-35.147 -238.281,-33.594C-239.629,-33.92 -241.008,-34.203 -242.812,-34.5C-245.182,-34.89 -249.377,-35.405 -252.969,-35.875C-253.234,-38.161 -253.507,-40.607 -253.687,-44.719L-251.937,-76.875C-251.933,-77.063 -251.933,-77.25 -251.937,-77.438L-251.937,-81.313C-251.937,-91.393 -254.783,-100.801 -261.25,-107.563C-261.591,-107.911 -261.956,-108.236 -262.344,-108.531C-268.431,-113.272 -275.201,-116.313 -282.312,-116.938C-283.464,-117.219 -284.666,-117.293 -285.844,-117.156C-286.053,-117.131 -286.262,-117.1 -286.469,-117.063C-287.02,-116.983 -287.563,-116.858 -288.094,-116.688C-290.204,-116.191 -292.133,-115.721 -293.562,-115.313C-294.408,-115.071 -295.145,-114.871 -295.969,-114.563C-296.793,-114.253 -297.204,-114.92 -300.25,-111.875C-301.931,-110.196 -302.982,-107.901 -303.156,-105.531C-304.025,-106.965 -304.777,-108.412 -305.75,-109.844C-306.141,-110.42 -306.592,-110.954 -307.094,-111.437C-311.303,-115.468 -316.076,-116.819 -321.5,-117.843C-326.722,-118.829 -332.842,-119.22 -340.031,-119.249C-340.291,-119.271 -340.552,-119.281 -340.812,-119.281L-341,-119.281L-373.156,-118.687C-373.638,-118.68 -374.119,-118.638 -374.594,-118.562L-378.187,-117.968L-378.156,-117.749C-380.503,-117.33 -382.61,-116.317 -383.781,-115.249C-385.231,-113.929 -385.869,-112.781 -386.375,-111.812C-387.389,-109.875 -387.768,-108.401 -388.156,-106.749C-388.936,-103.448 -389.438,-99.572 -389.906,-94.499C-390.843,-84.354 -391.476,-69.717 -391.875,-50.25C-391.878,-50.125 -391.878,-50 -391.875,-49.875C-391.675,-38.118 -391.379,-29.144 -390.906,-22.688C-390.67,-19.459 -390.385,-16.895 -390,-14.656C-389.809,-13.536 -389.627,-12.497 -389.219,-11.25C-388.812,-10.002 -388.904,-8.335 -385.375,-5.563C-383.741,-4.28 -381.7,-3.526 -379.625,-3.438L-365.656,-2.844C-361.022,-2.643 -356.494,-6.102 -355.469,-10.625C-355.014,-12.642 -355.066,-13.171 -354.937,-14.719C-354.81,-16.266 -354.683,-18.251 -354.531,-20.75C-354.389,-23.104 -354.2,-27.434 -354.031,-30.688C-351.79,-30.436 -349.604,-30.219 -347.656,-30.219L-343.5,-30.219C-337.059,-30.219 -330.542,-31.467 -324.062,-33.781C-323.895,-33.839 -323.728,-33.902 -323.562,-33.969C-316.595,-36.894 -310.582,-40.903 -305.781,-45.688C-304.954,-34.317 -302.248,-24.568 -296.469,-16.938C-289.422,-7.633 -277.921,-2.844 -265.5,-2.844C-265.187,-2.84 -264.875,-2.85 -264.562,-2.875C-255.103,-3.771 -248.007,-4.5 -243.156,-5.063C-240.731,-5.343 -238.887,-5.583 -237.437,-5.813C-236.714,-5.927 -236.123,-6.023 -235.312,-6.219C-234.908,-6.317 -234.494,-6.386 -233.531,-6.781C-233.051,-6.979 -232.454,-7.186 -231.281,-8.063C-230.506,-8.642 -229.033,-9.904 -228.094,-12.063C-221.26,-4.961 -213.8,0 -204.844,0C-196.399,0 -188.677,-1.479 -181.875,-4.594C-180.72,-3.091 -178.262,-0.594 -173.906,-0.594L-163.469,-0.594C-158.074,-0.594 -153.152,-1.353 -148.562,-3.063C-148.351,-3.125 -148.143,-3.175 -147.937,-3.25C-147.779,-3.313 -147.596,-3.309 -147.437,-3.375L-147.469,-3.469C-144.958,-4.53 -143.073,-6.35 -142.25,-7.625C-141.048,-9.487 -140.737,-10.771 -140.437,-11.969C-139.839,-14.364 -139.642,-16.54 -139.5,-19.25C-139.491,-19.489 -139.491,-19.729 -139.5,-19.969L-139.781,-33.531L-139.781,-33.656L-138.781,-51.438C-135.769,-47.735 -131.909,-44.704 -127.531,-42.563C-127.107,-42.355 -126.668,-42.177 -126.219,-42.031C-120.107,-40.06 -115.358,-38.458 -112.063,-37.313C-111.989,-37.286 -111.948,-37.276 -111.875,-37.25L-109.281,-13.813L-109.219,-13.813C-108.887,-11.109 -107.478,-8.775 -106.281,-7.563C-104.921,-6.182 -103.824,-5.637 -102.938,-5.219C-101.164,-4.382 -99.982,-4.134 -98.688,-3.875C-96.099,-3.357 -93.261,-3.113 -89.563,-2.875C-89.345,-2.858 -89.126,-2.847 -88.906,-2.844C-86.491,-2.844 -83.567,-3.929 -81.719,-5.531C-79.871,-7.133 -78.994,-8.854 -78.469,-10.219C-77.419,-12.948 -77.438,-14.787 -77.438,-16.719C-77.439,-17.073 -77.461,-17.428 -77.5,-17.781L-79.031,-31.938C-79.002,-32.176 -78.981,-32.416 -78.969,-32.656C-69.938,-35.528 -63.493,-38.057 -58.407,-43.625C-55.38,-29.967 -46.783,-18.365 -33.813,-11C-33.421,-10.775 -33.014,-10.576 -32.595,-10.406C-20.079,-5.356 -6.742,-2.844 7.155,-2.844L7.437,-2.844C13.525,-2.844 18.828,-3.456 23.78,-5.875C24.222,-6.028 24.595,-6.239 24.999,-6.438C25.07,-6.477 25.147,-6.49 25.218,-6.531L25.218,-6.563C28.044,-8.024 30.028,-10.366 30.937,-12.063C32.311,-14.626 32.878,-16.893 33.405,-19.5C33.605,-20.488 33.709,-21.785 33.874,-22.875C41.976,-10.374 55.296,-2.844 70.843,-2.844C79.651,-2.844 87.618,-4.153 94.593,-7.281C94.98,-7.454 95.356,-7.654 95.718,-7.875C101.42,-11.354 105.783,-16.235 109.155,-22.188L108.843,-13.781C108.679,-9.028 112.381,-4.439 117.062,-3.594L120.343,-3C121.188,-2.849 122.051,-2.806 122.905,-2.875L140.905,-4.281L143.968,-4.063C146.837,-3.842 149.779,-4.933 151.812,-6.969L152.718,-7.844C152.75,-7.885 152.781,-7.927 152.812,-7.969C152.894,-7.859 152.877,-7.834 152.968,-7.719C154.099,-6.296 156.884,-3.913 160.812,-3.781L160.812,-3.75C160.855,-3.749 160.894,-3.75 160.937,-3.75C161.004,-3.749 161.057,-3.719 161.124,-3.719L161.124,-3.75L189.968,-2.844C192.688,-2.765 195.423,-3.854 197.343,-5.781L197.655,-6.063C198.955,-7.362 199.886,-9.026 200.312,-10.813C201.77,-8.727 203.639,-7.056 205.343,-6.281C208.721,-4.745 211.465,-4.625 214.405,-4.625L216.78,-4.625C217.094,-4.62 217.406,-4.631 217.718,-4.656L229.562,-5.813L230.624,-5.813L233.812,-5.563C234.082,-5.541 234.354,-5.53 234.624,-5.531C238.247,-5.531 241.082,-7.533 242.374,-8.938C243.666,-10.341 244.141,-11.401 244.53,-12.281C245.312,-14.042 245.574,-15.316 245.874,-16.781C246.474,-19.712 246.892,-23.219 247.28,-27.781C247.3,-28.02 247.311,-28.26 247.312,-28.5C247.584,-54.58 247.846,-74.134 248.093,-87.125C248.217,-93.619 248.323,-98.508 248.437,-101.656C248.493,-103.215 248.552,-104.343 248.593,-104.937C248.594,-104.943 248.593,-104.963 248.593,-104.968C249.229,-108.168 248.175,-111.656 245.874,-113.968L245.562,-114.281C243.746,-116.085 241.216,-117.151 238.655,-117.187L218.718,-117.499C218.666,-117.5 218.614,-117.5 218.562,-117.499L218.249,-117.499C215.633,-117.494 213.035,-116.414 211.187,-114.562L210.905,-114.281C209.068,-112.447 207.989,-109.876 207.968,-107.28L207.812,-92.5C205.937,-97.704 204.003,-102.395 201.843,-106.155C200.053,-109.275 198.156,-111.979 195.499,-114.312C192.842,-116.646 188.991,-118.687 184.624,-118.687C184.531,-118.688 184.437,-118.688 184.343,-118.687L174.937,-118.406L167.968,-118.906L167.843,-118.937C167.635,-118.954 167.427,-118.964 167.218,-118.968C166.886,-118.995 166.552,-119.006 166.218,-118.999C165.979,-118.997 165.738,-118.988 165.499,-118.968C165.29,-118.944 165.082,-118.912 164.874,-118.874C164.323,-118.795 163.779,-118.669 163.249,-118.499L159.124,-117.53L159.155,-117.405C155.184,-116.511 152.776,-113.62 151.874,-112.031C150.909,-110.331 150.564,-109.082 150.249,-107.812C145.73,-112.688 139.612,-115.957 133.093,-116.468C133.072,-116.47 133.052,-116.466 133.03,-116.468C132.473,-116.558 131.908,-116.6 131.343,-116.593L131.062,-116.593C130.822,-116.591 130.582,-116.581 130.343,-116.562C130.008,-116.537 129.674,-116.495 129.343,-116.437C128.878,-116.365 128.418,-116.261 127.968,-116.124C127.777,-116.063 127.626,-115.939 127.437,-115.874C122.334,-114.149 117.736,-111.768 114.155,-107.937C113.89,-107.653 113.687,-107.3 113.437,-106.999C113.201,-107.346 112.984,-107.83 112.749,-108.093C111.521,-109.469 110.483,-110.052 109.687,-110.468C108.094,-111.301 107.189,-111.459 106.312,-111.656C104.557,-112.049 103.033,-112.201 101.124,-112.343C97.308,-112.628 92.209,-112.718 85.437,-112.718L71.749,-112.718C71.121,-112.726 70.492,-112.673 69.874,-112.562C65.874,-111.8 63.478,-108.985 62.437,-107.218C61.396,-105.452 61.066,-104.146 60.78,-102.906C60.208,-100.425 60.053,-98.109 59.968,-95.281C59.967,-95.187 59.967,-95.093 59.968,-94.999L59.968,-94.093C59.966,-93.968 59.966,-93.843 59.968,-93.718L61.437,-53.906L61.437,-53.75C61.432,-51.497 61.267,-49.422 61.062,-47.375C60.775,-48.179 60.482,-48.567 60.218,-49.594C58.812,-55.06 57.937,-63.309 57.937,-73.875L57.937,-78.313C57.937,-85.761 58.304,-93.154 59.062,-100.499C59.395,-103.7 58.067,-107.03 55.624,-109.124C53.545,-110.906 52.766,-110.974 51.843,-111.343C50.92,-111.712 50.021,-112.012 49.03,-112.312C47.415,-112.802 45.266,-113.345 42.968,-113.906C42.957,-113.908 42.948,-113.903 42.937,-113.906C42.19,-114.174 41.413,-114.353 40.624,-114.437C40.417,-114.464 40.208,-114.486 39.999,-114.499C39.875,-114.512 39.75,-114.523 39.624,-114.531C39.416,-114.538 39.208,-114.538 38.999,-114.531C38.665,-114.527 38.331,-114.506 37.999,-114.468C37.737,-114.437 37.477,-114.396 37.218,-114.343C37.146,-114.333 37.072,-114.323 36.999,-114.312C36.885,-114.283 36.77,-114.252 36.655,-114.218C36.339,-114.14 36.025,-114.046 35.718,-113.937C34.722,-113.598 33.779,-113.101 32.937,-112.468C31.573,-115.039 29.033,-116.955 26.187,-117.562C20.118,-118.851 14.774,-119.593 9.843,-119.593L-0.001,-119.593L0,-119.593Z" style="fill:white;fill-rule:nonzero;"/>
        </g>
        <g transform="matrix(1,0,0,1,773.688,411.342)">
            <path d="M0,-116.109C-0.291,-115.571 -0.532,-115.005 -0.719,-114.422C-0.455,-115.256 -0.248,-115.853 0,-116.109M88.25,-209.64C75.63,-209.732 63.74,-207.232 54.563,-200.547C54.395,-200.451 54.19,-200.306 54.031,-200.203C39.287,-190.265 30.353,-173.491 22.594,-161.734C22.461,-161.531 22.336,-161.322 22.219,-161.109C14.406,-147.198 8.772,-132.998 2.438,-120.859C-5.319,-123.406 -16.823,-129.326 -29.937,-132.765C-29.947,-132.767 -29.96,-132.763 -29.969,-132.765C-34.279,-133.886 -41.411,-130.977 -43.469,-126.515C-45.531,-122.044 -44.6,-118.288 -43.156,-115.265C-43.068,-115.075 -42.975,-114.887 -42.875,-114.703C-38.383,-106.657 -31.701,-101.089 -25.562,-96.016C-20.309,-91.672 -15.663,-87.75 -12.313,-84.172C-12.592,-83.342 -12.813,-82.61 -13.25,-81.172C-13.302,-81.005 -13.324,-81.003 -13.375,-80.829C-18.388,-65.953 -25.577,-46.41 -25.594,-26.141C-30.355,-30.373 -35.201,-34.664 -40.656,-39.11C-40.743,-39.193 -40.793,-39.247 -40.875,-39.329C-43.057,-41.473 -44.141,-42.928 -47.438,-44.672C-49.149,-45.577 -52.158,-46.384 -54.75,-46.016C-57.343,-45.648 -58.816,-44.712 -59.625,-44.235C-59.699,-44.183 -59.771,-44.131 -59.844,-44.079C-63.388,-41.862 -64.961,-37.943 -65.313,-35.422C-65.665,-32.902 -65.374,-31.077 -65.031,-29.391C-64.348,-26.019 -63.157,-23.106 -61.875,-20.204C-59.313,-14.398 -56.143,-8.867 -55.219,-7.235C-55.158,-7.139 -55.096,-7.046 -55.031,-6.954C-48.165,4.315 -36.708,24.524 -23.812,37.953C-21.58,40.274 -18.179,41.408 -15,40.89C-9.637,40.02 -7.135,37.079 -5.187,34.734C-4.122,33.451 -3.243,32.131 -2.438,30.828C9.549,44.507 24.842,56.209 46.063,60.546C45.143,63.703 44.272,66.957 43.594,70.609C43.541,70.878 43.499,71.15 43.469,71.421C43.013,75.933 46.155,81.533 49.219,83.609C52.238,85.657 54.621,86.079 56.719,86.515L56.719,86.546C56.748,86.554 56.782,86.539 56.813,86.546C77.973,91.181 99.922,93.623 123.469,91.234C123.604,91.216 123.739,91.196 123.875,91.171C126.3,90.823 129.634,91.654 134.094,86.078C136.323,83.29 137.003,77.938 135.844,74.828C134.684,71.718 133.016,70.117 131.375,68.64C130.733,68.062 130.018,67.567 129.25,67.171C119.265,62.065 109.698,57.756 99.844,53.14C106.169,50.574 112.479,47.52 118.344,43.578C118.625,43.383 118.896,43.175 119.156,42.953C146.674,20.021 152.733,-10.938 152.25,-34.704C153.551,-35.295 155.057,-35.942 156.656,-36.641C160.309,-38.237 164.871,-40.057 164.75,-40.016C164.95,-40.092 165.148,-40.176 165.344,-40.266C178.301,-45.617 184.314,-47.94 193.5,-52.547C193.573,-52.588 193.646,-52.63 193.719,-52.672C197.707,-54.798 202.168,-59.774 200.844,-66.454C199.604,-72.706 193.848,-75.681 189.375,-76.266C188.972,-76.328 188.781,-76.364 188.437,-76.422C177.096,-78.047 166.67,-77.524 156.969,-78.36C156.93,-97.875 162.182,-117.952 160.094,-142.953C160.087,-143.111 160.068,-143.295 160.062,-143.453C159.608,-155.349 158.496,-170.009 147.844,-185.703C147.724,-185.874 147.599,-186.041 147.469,-186.203C136.683,-200.133 118.765,-206.518 101.281,-208.734C96.91,-209.289 92.534,-209.61 88.25,-209.64" style="fill:white;fill-rule:nonzero;"/>
        </g>
        <g transform="matrix(1,0,0,1,815.789,402.748)">
            <path d="M0,-104.204C6.268,-105.826 14.549,-104.962 20.169,-101.248C19.375,-111.151 3.572,-112.185 0,-104.204M53.132,-94.569C58.704,-95.23 68.055,-91.031 71.538,-85.599C74.021,-97.724 56.483,-102.432 53.132,-94.569M45.462,-86.137C46.776,-86.605 48.181,-87.014 48.583,-87.044C49.527,-87.223 49.175,-87.537 48.669,-87.949C42.9,-92.576 35.107,-94.885 28.167,-95.323C22.866,-95.622 22.172,-95.328 20.706,-92.17C17.692,-85.67 15.821,-74.505 17.355,-72.165C17.803,-71.362 17.819,-71.471 18.499,-71.992C27.735,-79.289 36.424,-82.916 45.462,-86.137M36.348,-68.074C40.056,-73.439 45.936,-80.531 48.312,-85.153C45.79,-84.727 32.188,-80.515 31.067,-78.156C31.633,-76.031 32.517,-70.074 33.876,-67.342C34.873,-65.201 35.521,-66.877 36.348,-68.074M-57.057,33.067C-53.654,28.698 -48.673,18.083 -50.891,14.926C-64.642,4.997 -80.642,-9.397 -91.413,-19.806C-88.043,-11.095 -72.147,17.15 -57.057,33.066L-57.057,33.067ZM55.768,45.907C78.624,35.585 91.014,9.024 93.534,-11.389C94.879,-24.012 93.504,-38.982 89.896,-49.126C87.226,-55.856 84.016,-58.085 77.124,-57.395C64.708,-55.317 55.028,-51.127 44.343,-48.984C31.999,-47.373 22.66,-49.903 15.5,-55.489C10.34,-58.805 4.433,-63.165 0.116,-66.847C-5.889,-70.808 -11.332,-76.849 -20.81,-75.413C-40.543,-69.28 -48.913,-45.479 -51.545,-27.416C-54.01,-0.129 -43.021,20.377 -25.841,36.348C3.475,59.719 25.029,59.433 55.768,45.907M74.724,85.832C59.42,77.374 39.941,68.693 24.009,62.652C22.928,62.252 22.2,62.589 22.2,63.36C20.306,68.675 17.604,75.118 16.659,80.033C16.289,81.304 16.827,81.166 17.962,81.49C33.454,84.377 62.865,87.955 74.724,85.832M16.759,85.365C13.503,84.686 11.045,83.661 11.312,81.031C12.704,73.546 14.858,67.436 17.149,60.813C-14.461,58.949 -31.982,41.402 -46.507,20.828C-48.574,25.075 -53.675,38.803 -58.713,39.62C-70.075,27.787 -81.614,7.906 -88.607,-3.569C-90.555,-7.011 -100.608,-24.534 -96.642,-27.016C-94.836,-28.081 -94.294,-27.794 -89.708,-23.349C-75.905,-12.173 -64.559,-0.764 -52.661,8.378C-53.64,5.762 -54.745,2.275 -55.555,-0.606C-61.754,-23.179 -52.524,-49.643 -45.879,-69.401C-44.925,-72.642 -42.518,-77.558 -44.757,-80.008C-53.44,-90.775 -69.673,-99.237 -76.23,-110.981C-77.262,-113.142 -76.425,-114.975 -74.603,-114.493C-60.517,-110.804 -46.765,-101.796 -35.147,-100.972C-34.64,-100.967 -33.292,-102.341 -33.292,-102.862C-25.364,-116.838 -19.415,-132.947 -11.174,-147.622C-3.044,-159.94 6.166,-175.903 17.957,-183.639C34.808,-196.344 81.158,-192.551 97.473,-171.48C106.923,-157.558 107.55,-145.874 107.989,-134.003C110.249,-108.14 103.32,-86.484 105.093,-62.348C105.055,-61.47 105.442,-60.889 106.278,-60.726C119.992,-58.158 133.254,-59.789 145.737,-57.862C149.598,-57.636 150.021,-54.557 146.91,-52.898C138.067,-48.463 132.449,-46.282 119.436,-40.908C116.868,-40.04 103.986,-34.413 102.396,-33.465C101.293,-32.808 99.872,-31.278 100.123,-29.108C101.178,-6.748 96.571,22.281 70.668,43.867C58.547,52.014 43.369,56.866 30.816,59.546C49.84,69.777 65.897,76.141 82.601,84.683C86.51,88.197 83.64,89.404 80.351,89.878C58.064,92.14 37.254,89.86 16.759,85.365" style="fill-rule:nonzero;"/>
        </g>
        <g transform="matrix(1,0,0,1,869.669,465.074)">
            <path d="M0,23.529C-7.069,23.05 -19.697,21.562 -28.082,20.22C-32.347,19.539 -35.926,18.978 -36.037,18.975C-36.148,18.971 -36.448,18.838 -36.702,18.675C-37.077,18.438 -37.022,17.819 -36.413,15.435C-35.638,12.396 -31.6,1.004 -31.11,0.474C-30.29,-0.413 -1.123,12.345 14.45,20.404L20.239,23.4L18.163,23.627C15.274,23.942 5.298,23.888 0,23.529" style="fill:rgb(255,255,0);fill-rule:nonzero;"/>
        </g>
        <g transform="matrix(1,0,0,1,833.269,308.284)">
            <path d="M0,22.005C-1.335,19.51 0.709,8.056 3.514,2.323C4.777,-0.262 5.492,-0.654 8.928,-0.652C14.235,-0.649 20.838,0.913 25.509,3.271C27.458,4.255 31.449,6.735 31.449,6.963C31.449,7.013 30.207,7.455 28.687,7.944C19.171,11.015 8.978,16.136 2.387,21.16C0.48,22.613 0.35,22.659 0,22.005" style="fill:rgb(255,255,0);fill-rule:nonzero;"/>
        </g>
        <g transform="matrix(1,0,0,1,850.31,318.132)">
            <path d="M0,17.71C-0.691,16.874 -1.493,14.466 -2.39,10.535L-3.277,6.647L-2.205,5.731C-1.615,5.227 0.494,4.168 2.483,3.377C6.148,1.92 13.031,-0.33 13.227,-0.135C13.437,0.075 2.668,15.464 0.615,17.887C0.484,18.04 0.208,17.961 0,17.71" style="fill:rgb(212,170,0);fill-rule:nonzero;"/>
        </g>
        <g transform="matrix(1,0,0,1,755.733,387.066)">
            <path d="M0,45.032C-8.907,34.776 -21.481,15.627 -28.453,1.703C-30.81,-3.004 -30.74,-3.168 -27.621,-0.266C-15.895,10.647 -3.665,21.158 4.592,27.418C8.47,30.358 9.303,31.153 9.469,32.068C9.735,33.539 8.561,37.968 7.02,41.303C5.634,44.302 3.351,48.2 2.982,48.194C2.851,48.192 1.509,46.769 0,45.032" style="fill:rgb(255,255,0);fill-rule:nonzero;"/>
        </g>
        <g transform="matrix(1,0,0,1,141.062,378.079)">
            <path d="M0,-96.44C14.338,-96.44 23.268,-94.753 26.79,-91.379C33.934,-80.863 37.505,-71.04 37.505,-61.912C37.505,-47.625 29.469,-37.107 13.395,-30.36C7.839,-28.376 2.48,-27.383 -2.679,-27.383L-6.846,-27.383C-10.418,-27.383 -15.677,-28.078 -22.622,-29.467C-23.465,-11.36 -24.061,-1.537 -24.407,0L-38.397,-0.594C-39.786,-1.686 -40.68,-13.89 -41.076,-37.207C-40.282,-75.902 -38.497,-95.25 -35.719,-95.25L-32.146,-95.845L0,-96.44" style="fill-rule:nonzero;"/>
        </g>
        <g transform="matrix(1,0,0,1,197.023,378.078)">
            <path d="M0,-94.355C5.309,-94.355 10.766,-92.172 16.371,-87.807C20.737,-83.243 22.92,-76.793 22.92,-68.459L22.92,-64.59L21.134,-31.847C21.63,-19.941 22.622,-13.988 24.11,-13.988C38.597,-12.251 45.84,-11.061 45.84,-10.417L47.625,-3.272C47.625,-2.876 38.199,-1.784 19.348,0.001C-1.091,0.001 -11.311,-13.492 -11.311,-40.48L-11.311,-43.159L-8.334,-91.974C-7.937,-92.371 -5.159,-93.165 0,-94.356" style="fill-rule:nonzero;"/>
        </g>
        <g transform="matrix(1,0,0,1,302.319,380.908)">
            <path d="M0,-93.762C12.948,-93.762 22.473,-90.984 28.575,-85.428L28.575,-84.907L28.873,-85.204L29.17,-85.204C31.154,-81.385 32.146,-76.523 32.146,-70.619L32.146,-66.006L29.766,-23.441L30.063,-9.748C29.815,-4.986 29.22,-2.605 28.277,-2.605C25.053,-1.265 20.984,-0.595 16.073,-0.595L5.655,-0.595C5.109,-0.595 4.613,-3.647 4.167,-9.748C3.571,-9.748 1.19,-8.31 -2.977,-5.432C-8.781,-1.811 -16.223,0 -25.301,0C-30.957,0 -37.108,-3.821 -43.756,-11.46C-47.328,-16.619 -49.114,-22.225 -49.113,-28.278L-49.113,-29.766C-49.114,-38.051 -47.229,-45.195 -43.458,-51.198C-38.497,-55.96 -30.262,-58.341 -18.753,-58.341L-8.632,-58.043L-8.335,-69.205L-8.037,-70.322L-8.335,-71.141L-8.037,-74.042L-8.335,-74.34L-8.632,-74.34C-17.165,-73.894 -22.027,-72.827 -23.218,-71.141C-27.187,-74.613 -31.254,-79.301 -35.422,-85.204C-35.422,-87.735 -28.277,-90.191 -13.99,-92.572L0,-93.762" style="fill-rule:nonzero;"/>
        </g>
        <g transform="matrix(1,0,0,1,355.749,378.08)">
            <path d="M0,-94.357C18.256,-92.373 27.781,-91.182 28.575,-90.786L28.873,-88.702L28.575,-62.211C28.575,-52.189 31.75,-46.434 38.1,-44.947L40.481,-44.649C48.419,-45.79 52.388,-47.178 52.388,-48.816C54.769,-51.594 55.959,-56.555 55.96,-63.699L55.96,-68.164L55.662,-81.856C55.662,-89.198 56.753,-92.869 58.937,-92.869L65.187,-94.06C66.675,-93.514 67.667,-87.859 68.163,-77.093L68.163,-71.14C68.163,-55.414 65.782,-44.401 61.02,-38.1C58.439,-34.975 51.396,-31.601 39.886,-27.98C38.1,-27.98 37.207,-25.5 37.207,-20.539L36.909,-20.241L38.695,-3.87C38.695,-1.29 38.199,0 37.207,0C30.262,-0.447 26.789,-1.141 26.789,-2.084L23.515,-31.551C22.126,-32.345 15.279,-34.727 2.977,-38.696C-1.687,-40.977 -5.061,-44.153 -7.145,-48.22C-8.93,-51.544 -10.617,-61.268 -12.204,-77.391L-12.8,-86.916C-12.8,-90.19 -8.731,-92.572 -0.596,-94.06L-0.298,-94.357L0,-94.357" style="fill-rule:nonzero;"/>
        </g>
        <g transform="matrix(1,0,0,1,481.881,378.079)">
            <path d="M0,-96.738L9.823,-96.738C13.742,-96.738 18.505,-96.142 24.11,-94.952L20.837,-63.996C19.497,-60.622 13.346,-58.935 2.382,-58.935C-9.922,-58.935 -17.562,-56.852 -20.538,-52.684C-23.316,-48.269 -24.705,-43.209 -24.705,-37.505C-23.961,-25.201 -22.671,-19.05 -20.836,-19.05C-20.836,-17.958 -18.652,-16.867 -14.287,-15.775L-13.097,-15.477C-0.248,-16.668 6.499,-17.462 7.145,-17.859L8.335,-27.979L8.037,-28.277L7.739,-28.277L-10.418,-27.086C-12.353,-30.708 -13.443,-34.379 -13.691,-38.099C-13.691,-45.739 -9.128,-51.196 0,-54.47L5.358,-55.066L5.656,-55.066C11.658,-55.066 17.115,-52.982 22.027,-48.815C24.21,-44.499 25.302,-37.355 25.302,-27.384C24.706,-10.715 23.02,-2.381 20.241,-2.381C17.463,-0.793 13.196,0 7.441,0L7.145,0C-5.556,0 -17.562,-2.281 -28.872,-6.845C-42.763,-14.733 -49.708,-26.342 -49.708,-41.672C-49.708,-57.547 -42.862,-72.727 -29.17,-87.213C-22.522,-93.563 -12.799,-96.738 0,-96.738" style="fill-rule:nonzero;"/>
        </g>
        <g transform="matrix(1,0,0,1,521.172,378.08)">
            <path d="M0,-91.678C5.854,-90.289 9.129,-89.297 9.823,-88.701C9.029,-81.012 8.632,-73.273 8.633,-65.485L8.633,-61.02C8.633,-38.844 12.105,-25.35 19.051,-20.538C20.588,-19.943 21.978,-19.645 23.218,-19.645C26.591,-19.645 28.873,-21.034 30.063,-23.813C31.453,-29.071 32.147,-34.825 32.147,-41.076L30.659,-81.26L30.659,-82.154C30.808,-87.115 31.403,-89.694 32.445,-89.893L46.138,-89.893C59.433,-89.892 66.08,-89.396 66.08,-88.405C67.866,-77.441 68.759,-66.427 68.76,-55.365L68.76,-53.281C68.759,-27.285 62.905,-10.715 51.197,-3.572C45.889,-1.191 39.341,0 31.552,0C15.578,0 4.763,-7.64 -0.893,-22.919C-2.877,-29.368 -3.869,-36.115 -3.869,-43.16C-1.885,-74.116 -0.694,-90.289 -0.298,-91.678L0,-91.678" style="fill-rule:nonzero;"/>
        </g>
        <g transform="matrix(1,0,0,1,603.698,351.292)">
            <path d="M0,-40.185L22.324,-29.767L23.812,24.705L22.919,25.597L19.05,25.3L0.297,26.789L-2.977,26.193L-0.596,-39.887L-0.298,-40.185L0,-40.185M9.524,-66.974C15.875,-66.974 20.736,-63.7 24.11,-57.151L24.705,-53.58C24.705,-47.23 20.142,-43.558 11.013,-42.566L8.632,-42.566C0.496,-43.508 -3.572,-47.081 -3.572,-53.282C-3.572,-59.631 0.694,-64.196 9.228,-66.974L9.524,-66.974" style="fill-rule:nonzero;"/>
        </g>
        <g transform="matrix(1,0,0,1,648.347,378.081)">
            <path d="M0,-96.144L8.036,-95.549L18.157,-95.846C23.812,-95.846 29.567,-85.826 35.421,-65.784C40.332,-51.198 45.293,-40.085 50.304,-32.446L50.899,-32.446L51.495,-94.358L51.792,-94.656L52.09,-94.656L72.033,-94.358L72.331,-94.061C71.884,-94.061 71.388,-67.966 70.843,-15.777C70.099,-7.045 69.205,-2.68 68.164,-2.68L64.592,-2.977L62.806,-2.977L50.304,-1.787L47.923,-1.787C43.558,-1.787 41.374,-2.779 41.374,-4.763C30.659,-28.775 25.103,-40.879 24.706,-41.078L24.408,-41.078L24.11,-0.298L23.812,0L-5.358,-0.894C-7.095,-0.894 -8.186,-17.563 -8.632,-50.901C-8.632,-80.269 -7.441,-94.954 -5.061,-94.954L0,-96.144" style="fill-rule:nonzero;"/>
        </g>
    </g>
</svg>
